<svg xmlns="http://www.w3.org/2000/svg" id="Layer_1" x="0" y="0" enable-background="new 0 0 37.71 37.79" version="1.1" viewBox="0 0 37.71 37.79" xml:space="preserve"><style>.st0{fill:#FFFFFF;}</style><switch><g><path d="M32.12 5.45C24.67-1.9 12.67-1.8 5.43 5.66c-7.24 7.35-7.24 19.13 0 26.59 6.92 6.92 18.05 7.46 25.51 1.08.22-.22.22-.54.11-.76-.22-.22-.54-.22-.76-.11a17.565 17.565 0 0 1-6.59 3.46c1.3-1.08 2.38-2.38 3.24-3.89.65-1.08 1.19-2.27 1.62-3.57 1.19-.43 2.38-.97 3.57-1.62 1.51-.86 2.81-1.94 3.89-3.24-.76 2.7-2.16 5.19-4.11 7.35a.52.52 0 0 0 0 .76c.22.22.54.22.76 0 6.91-7.46 6.7-19.13-.55-26.26m-.75.75c2.16 2.16 3.78 4.86 4.54 7.78-1.08-1.3-2.38-2.49-3.89-3.24-1.08-.65-2.27-1.19-3.57-1.62-.54-1.41-1.08-2.7-1.84-3.89-.22-.22-.54-.32-.76-.22-.22.11-.32.54-.22.76.54.97 1.08 1.95 1.51 2.92-2.7-.76-5.51-1.19-8.32-1.19-2.81 0-5.62.32-8.32 1.19.54-1.3 1.19-2.59 2.05-3.78 1.84-2.49 4-3.89 6.38-3.89 2.16.11 4.22 1.19 5.62 2.92 0 .22.43.22.65.11.22-.22.22-.54.11-.76-.54-.54-1.08-1.08-1.62-1.51 2.81.75 5.52 2.26 7.68 4.42M8.13 16.36c-.32 0-.54.22-.54.54 0 .65-.11 1.3-.11 1.84 0 2.81.32 5.62 1.19 8.43-.86-.32-1.73-.76-2.49-1.19-3.35-1.94-5.08-4.43-5.08-7.13s1.84-5.19 5.08-7.13c.76-.43 1.62-.86 2.49-1.19-.43 1.4-.76 2.81-.86 4.21 0 .32.22.54.43.65h.11c.32 0 .54-.22.54-.43.22-1.62.54-3.24 1.08-4.86 2.81-.97 5.84-1.41 8.86-1.41s5.94.43 8.86 1.41c.97 2.92 1.41 5.84 1.41 8.86 0 3.03-.43 6.05-1.41 8.86-2.81.97-5.84 1.4-8.86 1.4s-6.05-.43-8.86-1.4c-.97-2.81-1.41-5.84-1.41-8.87v-1.84c.11-.43-.21-.64-.43-.75M6.19 6.2c2.16-2.16 4.86-3.78 7.78-4.54-.86.76-1.73 1.62-2.38 2.49-1.08 1.51-1.94 3.13-2.49 4.86-1.19.43-2.38.97-3.57 1.62a14.22 14.22 0 0 0-3.89 3.24c.87-2.8 2.39-5.51 4.55-7.67m0 25.18c-2.16-2.16-3.78-4.86-4.54-7.78 1.08 1.3 2.38 2.49 3.89 3.24 1.08.65 2.27 1.19 3.57 1.62.43 1.19.97 2.38 1.62 3.57.86 1.51 1.94 2.81 3.24 3.89-2.92-.75-5.62-2.38-7.78-4.54m19.77.11c-1.95 3.24-4.43 5.08-7.13 5.08s-5.19-1.84-7.13-5.08c-.43-.76-.86-1.62-1.19-2.49 2.7.76 5.51 1.19 8.43 1.19 2.81 0 5.62-.32 8.43-1.19-.54.87-.97 1.73-1.41 2.49m5.52-5.51c-.76.43-1.62.86-2.49 1.19.76-2.7 1.19-5.51 1.19-8.43 0-2.81-.32-5.62-1.19-8.43.86.32 1.73.76 2.49 1.19 3.24 1.95 5.08 4.43 5.08 7.13s-1.73 5.4-5.08 7.35" class="st0"/><path d="M11.58 16.74c.43-.22.76-.32 1.19-.32 1.19 0 1.84.65 1.84 1.51 0 .65-.32 1.19-.86 1.4.65.11 1.08.65 1.08 1.3 0 .86-.65 1.62-1.94 1.62-.54 0-.97-.11-1.41-.32v-.87c.43.22.86.32 1.41.32.76 0 1.08-.43 1.08-.86 0-.54-.43-.86-1.3-.86h-.32v-.76h.32c.65 0 1.08-.32 1.08-.86s-.32-.87-.97-.87c-.43 0-.86.22-1.19.43v-.86zM19.14 17.28c-.32-.11-.54-.22-.86-.22-1.08 0-1.62.86-1.84 1.94.33-.32.86-.54 1.3-.54.87 0 1.62.65 1.73 1.51v.22c.11 1.08-.65 1.95-1.62 2.05h-.22c-1.3 0-2.05-1.08-2.05-2.7 0-1.84.97-3.24 2.7-3.24.32 0 .54 0 .86.11v.87zm-.54 3.02c.11-.54-.32-.97-.87-1.08h-.11c-.43 0-.86.22-1.19.54 0 1.19.54 1.73 1.19 1.73.66 0 .98-.54.98-1.19M22.17 16.41c1.3 0 2.05 1.08 2.05 2.92 0 1.73-.65 2.92-2.05 2.92-1.3 0-1.95-1.19-1.95-2.92-.11-1.84.65-2.92 1.95-2.92m0 4.97c.76 0 1.19-.76 1.19-2.16 0-1.41-.54-2.16-1.19-2.16-.65 0-1.08.65-1.08 2.16-.11 1.51.43 2.16 1.08 2.16M26.17 16.3c.76 0 1.4.54 1.4 1.3v.11c0 .76-.65 1.4-1.3 1.4-.76 0-1.41-.54-1.41-1.3v-.11c-.1-.86.55-1.4 1.31-1.4m0 2.06c.43 0 .76-.32.76-.76 0-.43-.32-.76-.76-.76-.43 0-.76.32-.76.76 0 .43.32.76.76.76" class="st0"/></g></switch></svg>