<svg xmlns="http://www.w3.org/2000/svg" viewBox="0 0 37 37"><defs><style>.a,.b{fill:none;stroke-miterlimit:10;}.a{stroke:#d54725;stroke-width:3px;}.c,.d{stroke:none;}.d{fill:#d54725;}</style></defs><path d="M207 5082.347v-4.693a2.833 2.833 0 0 1 2.833-2.833h4.682M241 5082.347v-4.693a2.834 2.834 0 0 0-2.833-2.833h-4.683M207 5101.296v4.693a2.833 2.833 0 0 0 2.833 2.833h4.682M241 5101.296v4.693a2.833 2.833 0 0 1-2.833 2.833h-4.683" class="a" transform="translate(-205.5 -5073.5) translate(0 .179)"/><g><g transform="translate(-205.5 -5073.5) translate(213.268 5080.291) translate(-2.267 -2.291)"><g class="b"><path d="m1289.095 807.709-12.15 7.532-12.932-7.532v-14.763l12.541-5.875 12.541 5.875z" class="c" transform="translate(-1264.014 -787.071)"/><path d="m1276.897 811.74 9.198-5.701v-11.185l-9.54-4.47-9.542 4.47v11.13l9.884 5.757m.048 3.5-12.932-7.532v-14.763l12.541-5.875 12.54 5.875v14.763l-12.149 7.532z" class="d" transform="translate(-1264.014 -787.071)"/></g><path d="m1.056 6.487 11.545 7.13 11.423-7.13" class="a"/><path d="M0 12.388 0 0" class="a" transform="translate(12.541 14.084)"/></g></g></svg>