<svg xmlns="http://www.w3.org/2000/svg" xmlns:xlink="http://www.w3.org/1999/xlink" width="346.893" height="240.362" viewBox="0 0 346.893 240.362"><defs><style>.a,.b,.h,.i{fill:#d54725;}.b{opacity:0.5;}.c,.d{fill:#e9ecef;}.d{opacity:0.3;}.e,.i{font-size:21px;}.e,.f,.h,.i{font-family:Frutiger-Bold, 'Frutiger \34 5 Light';font-weight:700;}.f,.h{font-size:20px;}.g{fill:#fff;}.j,.k,.l,.m,.n,.p{fill:none;}.j,.m,.n{stroke:#d54725;}.j,.k,.l{stroke-miterlimit:10;}.j{stroke-width:0.5px;opacity:0.6;}.k,.l{stroke:#e9ecef;}.k{stroke-width:2px;}.m{stroke-width:0.2px;}.n{stroke-width:0.8px;}.o{stroke:none;}.q{filter:url(#j);}.r{filter:url(#g);}.s{filter:url(#e);}.t{filter:url(#c);}.u{filter:url(#a);}</style><filter id="a" x="103.615" y="129.844" width="69.741" height="69.741" filterUnits="userSpaceOnUse"><feOffset input="SourceAlpha"/><feGaussianBlur stdDeviation="4" result="b"/><feFlood flood-color="#d54725"/><feComposite operator="in" in2="b"/><feComposite in="SourceGraphic"/></filter><filter id="c" x="0" y="129.844" width="69.741" height="69.741" filterUnits="userSpaceOnUse"><feOffset input="SourceAlpha"/><feGaussianBlur stdDeviation="4" result="d"/><feFlood flood-color="#d54725"/><feComposite operator="in" in2="d"/><feComposite in="SourceGraphic"/></filter><filter id="e" x="50.984" y="3.368" width="45.716" height="60.705" filterUnits="userSpaceOnUse"><feOffset input="SourceAlpha"/><feGaussianBlur stdDeviation="4" result="f"/><feFlood flood-color="#d54725"/><feComposite operator="in" in2="f"/><feComposite in="SourceGraphic"/></filter><filter id="g" x="50.984" y="3.368" width="45.716" height="60.705" filterUnits="userSpaceOnUse"><feOffset input="SourceAlpha"/><feGaussianBlur stdDeviation="2.5" result="h"/><feFlood flood-color="#f22f00" result="i"/><feComposite operator="out" in="SourceGraphic" in2="h"/><feComposite operator="in" in="i"/><feComposite operator="in" in2="SourceGraphic"/></filter><filter id="j" x="44.712" y="0" width="64.261" height="64.261" filterUnits="userSpaceOnUse"><feOffset input="SourceAlpha"/><feGaussianBlur stdDeviation="3" result="k"/><feFlood flood-color="#d54725" result="l"/><feComposite operator="out" in="SourceGraphic" in2="k"/><feComposite operator="in" in="l"/><feComposite operator="in" in2="SourceGraphic"/></filter></defs><g transform="translate(-288.845 -224.066)"><g transform="translate(487.673 235.125)"><path class="a" d="M274.385,150.426l18.649,15.825-18.649,13.186v-6.4s-20.723-2.072-23.171-12.622V143.08s.753,11.3,23.171,14.5Z" transform="translate(-251.142 -38.399)"/><path class="b" d="M257.646,153.186c7.744-5.883,23.526-7.3,23.526-7.3v-17.9c-32.968,5.463-29.953,16.389-29.953,16.389S251.539,149.013,257.646,153.186Z" transform="translate(-251.148 -39.699)"/><path class="a" d="M367.553,150.426,348.9,166.251l18.651,13.186v-6.4s20.722-2.072,23.171-12.622V143.08s-.754,11.3-23.171,14.5Z" transform="translate(-242.731 -38.399)"/><path class="b" d="M383.355,153.186c-7.744-5.883-23.526-7.3-23.526-7.3v-17.9c32.968,5.463,29.954,16.389,29.954,16.389S389.463,149.013,383.355,153.186Z" transform="translate(-241.79 -39.699)"/><path class="c" d="M354.136,139.967a89.571,89.571,0,0,0-.532-16.773c-.39-2.783-.644-5.584-.97-8.375-.419-3.581-1.014-7.15-1.234-10.743a42.916,42.916,0,0,0-3.581-14.556,4.907,4.907,0,0,0-1.541-1.972,41.091,41.091,0,0,0-5.061-3.167c-3.573-1.829-7.216-3.521-10.843-5.246-1.752-.833-3.213-2.531-3.225-4.238a14.513,14.513,0,0,1,.053-2.661,3.852,3.852,0,0,1,.434-1.7,9.305,9.305,0,0,0,1.454-3.731,4.614,4.614,0,0,0,1.265-3.13c0-.253.379-1.17.6-2.75s-.759-1.517-.759-1.517c.854-3.858-.384-8.007-1.738-9.582-1.245-1.449-2.795-3.131-8.928-3.131s-7.587,2.813-8.22,4.11a19.994,19.994,0,0,0-1.58,5.248,6.524,6.524,0,0,0,.253,2.465l-.7.253c-.7.253-.348,1.58-.411,2.245s.506,1.264.6,3.129,1.391,1.8,1.391,1.8a9.356,9.356,0,0,0,1.675,4.584,11.2,11.2,0,0,1-.026,4.363c-.024.105-.041.2-.069.315-.5,2-1.294,3.9-3.369,4.876-2.115.994-4.229,1.99-6.316,3.04-2.495,1.254-4.961,2.564-7.435,3.86a2.219,2.219,0,0,0-.513.419,14.386,14.386,0,0,0-3.557,5.434,69.4,69.4,0,0,0-3.4,20.132c-.192,4.641-.307,9.3-.845,13.91-1.006,8.617-1.111,17.165.863,25.661a3.667,3.667,0,0,1,.015,2.754,1.126,1.126,0,0,0,.005.736c.272,1.006.519,2.024.887,3a11.868,11.868,0,0,0,1.009,1.749l.254-.13a9.526,9.526,0,0,0,.178,2.735c.77,2.092,1.742,4.111,2.664,6.144a1.039,1.039,0,0,0,.6.43c1.365.431,2.739.831,4.286,1.294,0,2.667-.053,5.572.012,8.474.116,5.064.307,10.126.464,15.188.06,1.927-.773,11.388-.656,14.25a4.706,4.706,0,0,1-.108,1.222,75.274,75.274,0,0,0-1.979,8.843,93.543,93.543,0,0,0-.175,10.8c.023,1.8.348,3.591.479,5.389a25.8,25.8,0,0,1-1.3,8.683c-1.207,4.385-.316,8.583.387,12.831a2,2,0,0,1-.09,1.533c-1.619,2.6-3.2,5.224-4.874,7.787a4.644,4.644,0,0,0-.609,4.233,2.026,2.026,0,0,0,1.866,1.641c2.4.06,4.8.046,7.2.031a4.815,4.815,0,0,0,1.2-.243,2.4,2.4,0,0,0,1.944-2.068,11.142,11.142,0,0,0,.31-2.058,2.092,2.092,0,0,1,1.259-2.09,5.039,5.039,0,0,0,2.663-5.333,5.243,5.243,0,0,1,.73-3.064,12.188,12.188,0,0,0,1.336-5.756,17.492,17.492,0,0,1,.03-3.12c.308-1.923.885-3.8,1.17-5.73a81.628,81.628,0,0,0,1.1-12.266,67.522,67.522,0,0,1,.332-7.014c.32-3.193,1.528-6.279,1.18-9.563a2.7,2.7,0,0,1,.263-.9c.442-1.54,3.258-17.184,3.811-20.319.7-3.981,1.612-7.925,2.45-11.882.365-1.723.774-3.435,1.164-5.152h.354c.07,4.3.174,8.6.2,12.9.016,3.009-.114,6.016-.1,9.024a23.57,23.57,0,0,0,.311,4.721c.461,2.2.9,4.293.294,6.595-.349,1.333.225,2.88.152,4.319-.106,2.08-.408,4.151-.654,6.223-.475,4-1.071,7.989-1.424,12-.4,4.571-.615,9.16-.865,13.744a11.432,11.432,0,0,0,.244,2.233,13.386,13.386,0,0,1,.38,2.4c-.08,1.788-.417,3.565-.468,5.351-.087,3.011.278,4.226,2.959,4.911a9.452,9.452,0,0,1,1.08.357c1.469.577,2.949,1.068,3.6,2.789a5.026,5.026,0,0,0,3.853,3.051,16.238,16.238,0,0,0,8.509-.61c.376-.112.89-.6.9-.925a4.55,4.55,0,0,0-.381-2.289,16.206,16.206,0,0,0-2.25-3.031c-1.044-1.14-2.373-2.039-3.307-3.252-1.547-2.007-2.865-4.166-1.812-6.928.245-.643.516-1.44-.178-2.036-.545-.468-.433-.909-.2-1.5a16.118,16.118,0,0,0,.987-3.242c1.117-7.054,2.023-14.146,3.316-21.167.531-2.887,1.09-5.685.625-8.614-.15-.949.205-1.888-.557-2.589-.084-.077-.177-.253-.144-.33a4.182,4.182,0,0,0-.011-2.627c.369-2.286.249-4.691.607-6.979.113-.716.176-1.438.266-2.157.228-1.818,1.307-7.123,1.45-7.986.677-4.08,1.271-8.176,1.942-12.258q.7-4.254,1.556-8.481c.075-.37.566-.683.916-.956.083-.063.376.146.554.22l-.993,1.084.054.317c.969.172,1.932.394,2.908.5.514.053,1.056-.193,1.573-.153a2.5,2.5,0,0,0,2.388-1.077,23.578,23.578,0,0,0,1.477-2.413,10.071,10.071,0,0,0,1.321-5.756c.645-.6,1.411-.964,1.464-1.415.29-2.435.978-4.847.6-7.342a5.14,5.14,0,0,1,.059-1.325C353.321,147.249,353.961,143.62,354.136,139.967Zm-53.9-18.236c-.336,3.332-.362,6.694-.593,10.038-.326,4.7-.718,9.388-1.079,14.082a3.766,3.766,0,0,0-.039,1.132c.072.293.348.743.562.76.876.068.847.6.742,1.2-.218,1.237-.51,2.463-.669,3.707a10.79,10.79,0,0,0,.1,1.964l-.265.109a4.33,4.33,0,0,1-.656-1.077,40.383,40.383,0,0,1-1.109-4.965,44.055,44.055,0,0,1-.055-4.549,47.45,47.45,0,0,1,.29-5.522,69.08,69.08,0,0,0-.1-8.139,3.28,3.28,0,0,0-.067-.66,5.606,5.606,0,0,1,.22-2.829,47.546,47.546,0,0,0,.971-5.871c.3-2.224.538-4.457.812-6.685a2.6,2.6,0,0,1,.2-.545A17.582,17.582,0,0,1,300.233,121.731Zm41.981,36.145c.055.163-.171.424-.441.609L341.4,149.3c.767-.174.854-.866.809-1.686-.232-4.264-.506-8.528-.631-12.8-.079-2.714.075-5.435.129-8.152a1.456,1.456,0,0,1,.091-.339l.328-.026c.155.945.281,1.9.474,2.836.168.828.407,1.641.618,2.461a3.87,3.87,0,0,1,.175.633c.193,2.341.352,4.683.569,7.022a24.874,24.874,0,0,0,.442,2.513,19.992,19.992,0,0,1-.114,9.905c-.418,1.361-1.009,2.671-1.554,3.99C342.444,156.374,341.915,157.006,342.214,157.877Z" transform="translate(-248.12 -46.698)"/></g><g transform="translate(299 364.065)"><rect class="d" width="45.741" height="45.741" rx="3.402" transform="translate(1.845 54.621)"/><text class="e" transform="translate(16.389 82.981)"><tspan x="0" y="0">A</tspan></text><rect class="d" width="45.741" height="45.741" rx="3.402" transform="translate(53.652 1.845)"/><text class="e" transform="translate(64.989 30.204)"><tspan x="0" y="0">W</tspan></text><rect class="d" width="45.741" height="45.741" rx="3.402" transform="translate(53.652 54.621)"/><text class="f" transform="translate(70.11 81.981)"><tspan x="0" y="0">S</tspan></text><g class="u" transform="matrix(1, 0, 0, 1, -10.15, -140)"><rect class="g" width="45.741" height="45.741" rx="3.402" transform="translate(115.61 141.84)"/></g><text class="h" transform="translate(121.918 29.204)"><tspan x="0" y="0">E</tspan></text><rect class="d" width="45.741" height="45.741" rx="3.402" transform="translate(105.46 54.621)"/><text class="e" transform="translate(120.003 82.981)"><tspan x="0" y="0">D</tspan></text><g class="t" transform="matrix(1, 0, 0, 1, -10.15, -140)"><rect class="g" width="45.741" height="45.741" rx="3.402" transform="translate(12 141.84)"/></g><text class="i" transform="translate(15.743 30.205)"><tspan x="0" y="0">Q</tspan></text><rect class="j" width="49.431" height="49.431" rx="4.2" transform="translate(0 0)"/><rect class="j" width="49.431" height="49.431" rx="4.2" transform="translate(103.526 0.682)"/></g><g transform="translate(298 224.066)"><g transform="translate(49.109 10.336)"><rect class="k" width="59.192" height="88.362" rx="29" transform="translate(0.001)"/><path class="l" d="M212.511,122.444a64.406,64.406,0,0,1-59.194,0" transform="translate(-153.317 -84.643)"/><line class="l" y2="14.869" transform="translate(29.597 30.103)"/><line class="l" y2="12.101" transform="translate(29.597)"/><rect class="l" width="9.346" height="18.002" rx="3.522" transform="translate(24.924 12.101)"/></g><g transform="translate(0 22.968)"><path class="a" d="M122.865,113.154,137.2,102.4v21.5Z" transform="translate(-122.865 -102.403)"/><rect class="a" width="12.643" height="15.172" transform="translate(14.213 17.073) rotate(-90)"/></g><g transform="translate(125.5 22.968)"><path class="a" d="M230.121,113.154l-14.336,10.752V102.4Z" transform="translate(-200.736 -102.403)"/><rect class="a" width="12.643" height="15.172" transform="translate(15.172 4.43) rotate(90)"/></g><g data-type="innerShadowGroup"><g class="s" transform="matrix(1, 0, 0, 1, -9.15, 0)"><path class="g" d="M176.676,132.994l1.358.1v-8.72l-.642-.363a7.634,7.634,0,0,1-3.884-6.629v-8.618a7.633,7.633,0,0,1,3.884-6.629l.642-.364V96.391l-1.446.211a23.808,23.808,0,0,0-20.27,23.422v7.69l.738.338A57.164,57.164,0,0,0,176.676,132.994Z" transform="translate(-93.33 -81.02)"/></g><g class="r" transform="matrix(1, 0, 0, 1, -9.15, 0)"><path class="g" d="M176.676,132.994l1.358.1v-8.72l-.642-.363a7.634,7.634,0,0,1-3.884-6.629v-8.618a7.633,7.633,0,0,1,3.884-6.629l.642-.364V96.391l-1.446.211a23.808,23.808,0,0,0-20.27,23.422v7.69l.738.338A57.164,57.164,0,0,0,176.676,132.994Z" transform="translate(-93.33 -81.02)"/></g></g><g data-type="innerShadowGroup"><g class="q" transform="matrix(1, 0, 0, 1, -9.15, 0)"><ellipse class="g" cx="32.13" cy="32.13" rx="32.13" ry="32.13" transform="translate(44.71 0)"/></g><g class="m" transform="translate(35.557 0)"><ellipse class="o" cx="32.13" cy="32.13" rx="32.13" ry="32.13"/><ellipse class="p" cx="32.13" cy="32.13" rx="32.03" ry="32.03"/></g></g><g class="n" transform="translate(47.091 11.534)"><circle class="o" cx="20.596" cy="20.596" r="20.596"/><circle class="p" cx="20.596" cy="20.596" r="20.196"/></g></g></g></svg>