<svg xmlns="http://www.w3.org/2000/svg" xmlns:xlink="http://www.w3.org/1999/xlink" width="305.601" height="154.188" viewBox="0 0 305.601 154.188"><defs><style>.a,.c,.g,.h,.j,.k{fill:none;}.b,.i{fill:#fff;}.c,.j{stroke:#d54725;}.c{stroke-width:0.2px;}.d{fill:#d54725;}.e{fill:url(#g);}.f{opacity:0.27;}.g,.h,.k{stroke:#fff;}.g,.k{stroke-width:2px;}.g{opacity:0.6;}.h{stroke-width:3px;}.h,.i{opacity:0.7;}.j{stroke-width:8px;}.k{stroke-linecap:round;stroke-linejoin:round;}.l{stroke:none;}.m{filter:url(#d);}.n{filter:url(#a);}</style><filter id="a" x="161.463" y="23.142" width="55.452" height="55.452" filterUnits="userSpaceOnUse"><feOffset input="SourceAlpha"/><feGaussianBlur stdDeviation="3" result="b"/><feFlood flood-color="#d54725" result="c"/><feComposite operator="out" in="SourceGraphic" in2="b"/><feComposite operator="in" in="c"/><feComposite operator="in" in2="SourceGraphic"/></filter><filter id="d" x="104.43" y="67.144" width="55.452" height="55.452" filterUnits="userSpaceOnUse"><feOffset input="SourceAlpha"/><feGaussianBlur stdDeviation="3" result="e"/><feFlood flood-color="#d54725" result="f"/><feComposite operator="out" in="SourceGraphic" in2="e"/><feComposite operator="in" in="f"/><feComposite operator="in" in2="SourceGraphic"/></filter><linearGradient id="g" x1="0.202" y1="0.382" x2="0.881" y2="0.797" gradientUnits="objectBoundingBox"><stop offset="0" stop-color="#fff" stop-opacity="0.929"/><stop offset="1" stop-color="#fff" stop-opacity="0"/></linearGradient></defs><g transform="translate(-44.05 -403)"><rect class="a" width="304" height="154" transform="translate(45 403)"/><g data-type="innerShadowGroup"><g class="n" transform="matrix(1, 0, 0, 1, 44.05, 403)"><ellipse class="b" cx="21" cy="21" rx="21" ry="21" transform="translate(161.46 40.22) rotate(-24)"/></g><g class="c" transform="translate(205.514 443.225) rotate(-24)"><ellipse class="l" cx="21" cy="21" rx="21" ry="21"/><ellipse class="a" cx="21" cy="21" rx="20.9" ry="20.9"/></g></g><g data-type="innerShadowGroup"><g class="m" transform="matrix(1, 0, 0, 1, 44.05, 403)"><ellipse class="b" cx="21" cy="21" rx="21" ry="21" transform="translate(104.43 84.23) rotate(-24)"/></g><g class="c" transform="translate(148.48 487.227) rotate(-24)"><ellipse class="l" cx="21" cy="21" rx="21" ry="21"/><ellipse class="a" cx="21" cy="21" rx="20.9" ry="20.9"/></g></g><circle class="d" cx="10" cy="10" r="10" transform="translate(220.037 448.8) rotate(-24)"/><circle class="d" cx="10" cy="10" r="10" transform="translate(163.003 492.802) rotate(-24)"/><path class="e" d="M52.953,92.172C36.669,84.937,31.682,74.687,22,73.733S4.786,77.256,2.021,70.88s4.7-9.084,4.7-9.084S21.887,60.08,24.43,59.2s2.984-6.883,2.984-6.883L30.633,5.139S30.925,0,36.064,0,42.2,3.388,42.2,6.19V33.635s-.719-9.577,6.17-9.577S53.7,33.167,53.7,33.167s.007-7.06,6.08-7.06,5.132,5.658,5.132,9.629A5.382,5.382,0,0,1,70.982,32c4.9.583,5.139,4.087,5.489,8.525s-.776,17.069-1.051,22.89S52.953,92.172,52.953,92.172Z" transform="matrix(0.883, 0.469, -0.469, 0.883, 204.743, 434.693)"/><g class="f" transform="translate(-231 -1115)"><g transform="translate(276 1520.6)"><line class="g" y1="151.274" x2="49.963" transform="translate(0 0)"/><line class="g" x1="48.737" y1="151.274" transform="translate(254.963 0)"/></g><g class="h" transform="translate(397.85 1518)"><ellipse class="l" cx="30" cy="15" rx="30" ry="15"/><ellipse class="a" cx="30" cy="15" rx="28.5" ry="13.5"/></g><path class="i" d="M12.215,4.516V0L24.43,5.89v4.515ZM0,5.89,12.215,0V4.516L0,10.405Z" transform="translate(414.342 1526.768)"/></g><g transform="translate(3 0.937)"><path class="d" d="M0,8.009,10.679,0V16.019Z" transform="matrix(0.375, -0.927, 0.927, 0.375, 168.968, 468.269)"/><path class="d" d="M10.679,8.009,0,0V16.019Z" transform="matrix(0.97, -0.242, 0.242, 0.97, 192.806, 442.825)"/><path class="j" d="M362.18,1687.97a26.316,26.316,0,0,1,19.659-5.263" transform="translate(-837.468 -931.954) rotate(-24)"/></g><path class="k" d="M75.421,63.415c1.286-4.739,1.4-18.453,1.051-22.89S75.887,32.583,70.982,32a5.382,5.382,0,0,0-6.072,3.736c0-3.971.941-9.629-5.132-9.629s-6.08,7.06-6.08,7.06,1.558-9.109-5.332-9.109-6.17,9.577-6.17,9.577V6.19C42.2,3.388,41.2,0,36.064,0s-5.431,5.139-5.431,5.139L27.414,52.318s-.44,6-2.984,6.883S6.726,61.8,6.726,61.8s-7.47,2.708-4.7,9.084S12.328,72.779,22,73.733s14.665,11.2,30.948,18.439" transform="matrix(0.883, 0.469, -0.469, 0.883, 204.083, 434.439)"/></g></svg>