<svg xmlns="http://www.w3.org/2000/svg" xmlns:xlink="http://www.w3.org/1999/xlink" width="340.644" height="255.049" viewBox="0 0 340.644 255.049"><defs><style>.a,.g,.h{fill:#d54725;}.b,.c{fill:#e9ecef;}.c{opacity:0.3;}.d,.g{font-size:21px;}.d,.e,.g,.h{font-family:Frutiger-Bold, 'Frutiger \34 5 Light';font-weight:700;}.e,.h{font-size:20px;}.f{fill:#fff;}.i,.j,.k,.l,.m,.o{fill:none;}.i,.l,.m{stroke:#d54725;}.i,.j,.k{stroke-miterlimit:10;}.i{stroke-width:0.5px;opacity:0.6;}.j,.k{stroke:#e9ecef;}.j{stroke-width:2px;}.l{stroke-width:0.2px;}.m{stroke-width:0.8px;}.n{stroke:none;}.p{filter:url(#n);}.q{filter:url(#k);}.r{filter:url(#i);}.s{filter:url(#g);}.t{filter:url(#e);}.u{filter:url(#c);}.v{filter:url(#a);}</style><filter id="a" x="103.526" y="185.307" width="69.741" height="69.741" filterUnits="userSpaceOnUse"><feOffset input="SourceAlpha"/><feGaussianBlur stdDeviation="4" result="b"/><feFlood flood-color="#d54725"/><feComposite operator="in" in2="b"/><feComposite in="SourceGraphic"/></filter><filter id="c" x="51.807" y="185.307" width="69.741" height="69.741" filterUnits="userSpaceOnUse"><feOffset input="SourceAlpha"/><feGaussianBlur stdDeviation="4" result="d"/><feFlood flood-color="#d54725"/><feComposite operator="in" in2="d"/><feComposite in="SourceGraphic"/></filter><filter id="e" x="0" y="185.307" width="69.741" height="69.741" filterUnits="userSpaceOnUse"><feOffset input="SourceAlpha"/><feGaussianBlur stdDeviation="4" result="f"/><feFlood flood-color="#d54725"/><feComposite operator="in" in2="f"/><feComposite in="SourceGraphic"/></filter><filter id="g" x="51.719" y="133.037" width="69.741" height="69.741" filterUnits="userSpaceOnUse"><feOffset input="SourceAlpha"/><feGaussianBlur stdDeviation="4" result="h"/><feFlood flood-color="#d54725"/><feComposite operator="in" in2="h"/><feComposite in="SourceGraphic"/></filter><filter id="i" x="70.566" y="13.445" width="33.346" height="42.002" filterUnits="userSpaceOnUse"><feOffset input="SourceAlpha"/><feGaussianBlur stdDeviation="4" result="j"/><feFlood flood-color="#d54725"/><feComposite operator="in" in2="j"/><feComposite in="SourceGraphic"/></filter><filter id="k" x="70.566" y="13.445" width="33.346" height="42.002" filterUnits="userSpaceOnUse"><feOffset input="SourceAlpha"/><feGaussianBlur stdDeviation="2" result="l"/><feFlood flood-color="#d54725" result="m"/><feComposite operator="out" in="SourceGraphic" in2="l"/><feComposite operator="in" in="m"/><feComposite operator="in" in2="SourceGraphic"/></filter><filter id="n" x="51.614" y="0" width="70.278" height="70.278" filterUnits="userSpaceOnUse"><feOffset input="SourceAlpha"/><feGaussianBlur stdDeviation="3" result="o"/><feFlood flood-color="#d54725" result="p"/><feComposite operator="out" in="SourceGraphic" in2="o"/><feComposite operator="in" in="p"/><feComposite operator="in" in2="SourceGraphic"/></filter></defs><g transform="translate(-706.934 -220.873)"><g transform="translate(-14 -18)"><path class="a" d="M326.65,1259.011h0L308,1245.824,326.65,1230v8.923l-8.133,6.9,8.133,5.751v7.436Z" transform="translate(601.178 -882.5)"/><path class="a" d="M287.02,363.153H269.083v-7.158l-18.65,15.824,18.65,13.187v-6.4H287.02Z" transform="translate(672.559 -8.495)"/></g><g transform="translate(997.177 329.5)"><path class="a" d="M18.65,0h0L0,13.187,18.65,29.011V20.088l-8.133-6.9L18.65,7.436V0Z" transform="translate(50.401 29.011) rotate(180)"/><path class="a" d="M250.433,363.153H268.37v-7.158l18.65,15.824-18.65,13.187v-6.4H250.433Z" transform="translate(-250.433 -355.995)"/></g><path class="b" d="M351.381,478.435a6.6,6.6,0,0,1-.441-1.31c-1.448-5.506-3.094-10.967-4.283-16.532-1.872-8.763-3.841-17.448-8.412-25.241a9.386,9.386,0,0,1-.639-2.039c-.306-1.02-.582-2.052-.923-3.059a24.474,24.474,0,0,1-1.189-3.3c-1.165-6.415-2.262-13.986-3.313-20.422a3.284,3.284,0,0,1,.42-2.1A25.594,25.594,0,0,0,336.749,387a19.3,19.3,0,0,1-.278-3.523c.218-3.591.542-7.176.855-10.761a34.246,34.246,0,0,1,.57-4.893,17.967,17.967,0,0,0,.127-7.03,80.378,80.378,0,0,1-.895-9.771c.015-2.651.68-5.29.9-7.947.916-10.853-1.012-21.96-8.842-29.947a13.6,13.6,0,0,1-2.636-4.564l-.536.054c-.088-.517-.169-1.064-.221-1.6a17.22,17.22,0,0,1,.641-8.122c.777-2.9,2.771-7.217,2.128-12.294-.409-3.238-1.4-7.012-5.587-8.438-2.455-.836-9.608-1.09-12.8.153a8.644,8.644,0,0,0-4.956,4.308l.418,1.684s-.537,2.358-.933,4.076a14.715,14.715,0,0,0,.132,4.421c0,.6-1.366,2.786-1.939,3.644a1.424,1.424,0,0,0,0,1.862,10.189,10.189,0,0,0,1.491.858,12.6,12.6,0,0,1,.007,1.862c-.088.382.66.907.66.907a4.764,4.764,0,0,0-.219.667,6.218,6.218,0,0,0,.749,1.48,6.447,6.447,0,0,0,0,2.385c.264,1.051,1.943,1.476,2.916,1.592s1.808.179,1.808.179l.665,4.449c-.058.258-.121.51-.185.742a4.04,4.04,0,0,0,.121,2.36,6.306,6.306,0,0,1-.308,4.88,86.128,86.128,0,0,0-4.925,20.119c-.2,2.147-.02,4.344-.343,6.465-1.357,8.928-1.178,20.242-1.795,29.217a5.815,5.815,0,0,0,.269,1.63c.395,1.72,1.19,3.448,1.133,5.148-.094,2.8-.81,5.577-1.126,8.381-.463,4.1-.354,8.308-2.608,11.985a.53.53,0,0,0-.049.146c-.835,3.385-1.656,6.775-2.505,10.155-1.374,5.473-2.59,12.139-4.207,17.534a49.718,49.718,0,0,0-2.436,12.807,18.721,18.721,0,0,1-2.207,8.711c-1.059,1.909-1.926,3.936-2.8,5.944-.8,1.825-1.423,3.734-2.254,5.544q-5.283,11.494-10.679,22.931a2.624,2.624,0,0,1-1.51,1.218,26.36,26.36,0,0,1-12.423.835,7.149,7.149,0,0,0-1.486-.155,2.012,2.012,0,0,0-1.8,3.092,9.634,9.634,0,0,0,1.572,2.045,23.73,23.73,0,0,0,12.331,6.526,17.018,17.018,0,0,0,4.294.176c1.634-.084,3.259-.366,4.886-.579a1.81,1.81,0,0,1,2.034,1.134,2.134,2.134,0,0,0,1.539,1.08,43.214,43.214,0,0,0,5.443-.838,1.592,1.592,0,0,0,1.064-.9c.759-2.942,2.435-5.7,1.752-8.947a1.269,1.269,0,0,1,.062-.75c1.2-2.5,2.218-5.036,1.989-7.93a2.78,2.78,0,0,1,.508-1.258c3.137-6.073,6.419-12.073,9.392-18.231a113.461,113.461,0,0,0,8.251-23.76c.917-3.954,3.068-6.79,5.749-9.456a1.855,1.855,0,0,1,.267.362q6.971,16.793,13.933,33.591c1.214,2.925,2.238,5.96,3.725,8.729,1.221,2.274,1.756,5.337.188,7.347-1.846,2.364-3.956,4.327-7.363,4.228a27.05,27.05,0,0,0-7.045,1.037,2.707,2.707,0,0,0-1.644,1.986,2.941,2.941,0,0,0,1.6,2.071,53.4,53.4,0,0,0,5.826,1.916,13.914,13.914,0,0,0,11.693-1.229c.874-.519,2.2-.359,3.3-.3a1.418,1.418,0,0,1,1.453,1.723,1.347,1.347,0,0,0,.727,1.072,47.511,47.511,0,0,0,6.2.895,2.225,2.225,0,0,0,2.544-2.086C353.08,487.442,353.584,482.745,351.381,478.435Z" transform="translate(651.443 -42.588)"/><g transform="translate(717 364.065)"><rect class="c" width="45.741" height="45.741" rx="3.402" transform="translate(1.845 1.845)"/><rect class="c" width="45.741" height="45.741" rx="3.402" transform="translate(104.832 1.845)"/><text class="d" transform="translate(15.565 30.205)"><tspan x="0" y="0">Q</tspan></text><text class="e" transform="translate(121.309 29.205)"><tspan x="0" y="0">E</tspan></text><g class="v" transform="matrix(1, 0, 0, 1, -10.07, -143.19)"><rect class="f" width="45.741" height="45.741" rx="3.402" transform="translate(115.53 197.31)"/></g><g class="u" transform="matrix(1, 0, 0, 1, -10.07, -143.19)"><rect class="f" width="45.741" height="45.741" rx="3.402" transform="translate(63.81 197.31)"/></g><g class="t" transform="matrix(1, 0, 0, 1, -10.07, -143.19)"><rect class="f" width="45.741" height="45.741" rx="3.402" transform="translate(12 197.31)"/></g><text class="g" transform="translate(119.464 82.475)"><tspan x="0" y="0">D</tspan></text><text class="h" transform="translate(70.033 81.475)"><tspan x="0" y="0">S</tspan></text><text class="g" transform="translate(15.658 82.475)"><tspan x="0" y="0">A</tspan></text><g class="s" transform="matrix(1, 0, 0, 1, -10.07, -143.19)"><rect class="f" width="45.741" height="45.741" rx="3.402" transform="translate(63.72 145.04)"/></g><text class="g" transform="translate(65.09 30.205)"><tspan x="0" y="0">W</tspan></text><rect class="i" width="49.431" height="49.431" rx="4.2" transform="translate(51.808 0)"/><rect class="i" width="49.431" height="49.431" rx="4.2" transform="translate(103.526 52.27)"/><rect class="i" width="49.431" height="49.431" rx="4.2" transform="translate(51.807 52.27)"/><rect class="i" width="49.431" height="49.431" rx="4.2" transform="translate(0 52.27)"/></g><rect class="j" width="59.192" height="88.362" rx="29" transform="translate(764 234.402)"/><path class="k" d="M212.511,122.444a64.406,64.406,0,0,1-59.194,0" transform="translate(610.683 149.575)"/><line class="k" y2="14.869" transform="translate(794 264.32)"/><line class="k" y2="12.101" transform="translate(794 234.217)"/><g data-type="innerShadowGroup"><g class="r" transform="matrix(1, 0, 0, 1, 706.93, 220.87)"><rect class="f" width="9.346" height="18.002" rx="3.522" transform="translate(82.57 25.45)"/></g><g class="q" transform="matrix(1, 0, 0, 1, 706.93, 220.87)"><rect class="f" width="9.346" height="18.002" rx="3.522" transform="translate(82.57 25.45)"/></g></g><rect class="k" width="9.346" height="18.002" rx="3.522" transform="translate(789 246.318)"/><path class="a" d="M0,10.752,14.336,0V21.5Z" transform="translate(804.503 227) rotate(90)"/><path class="a" d="M0,10.752,14.336,0V21.5Z" transform="translate(783 286.721) rotate(-90)"/><g data-type="innerShadowGroup"><g class="p" transform="matrix(1, 0, 0, 1, 706.93, 220.87)"><ellipse class="f" cx="35.139" cy="35.139" rx="35.139" ry="35.139" transform="translate(51.61)"/></g><g class="l" transform="translate(758.548 220.873)"><ellipse class="n" cx="35.139" cy="35.139" rx="35.139" ry="35.139"/><ellipse class="o" cx="35.139" cy="35.139" rx="35.039" ry="35.039"/></g></g><g class="m" transform="translate(781.5 243.654)"><circle class="n" cx="12.358" cy="12.358" r="12.358"/><circle class="o" cx="12.358" cy="12.358" r="11.958"/></g></g></svg>