<svg xmlns="http://www.w3.org/2000/svg" xmlns:xlink="http://www.w3.org/1999/xlink" width="304" height="154" viewBox="0 0 304 154"><defs><style>.a{fill:#fff;}.b,.f,.g{fill:none;}.b,.c{stroke:#d54725;}.b{stroke-width:0.2px;}.c,.d{fill:#d54725;}.c{stroke-width:0.8px;}.e{fill:url(#d);}.f{stroke:#fff;stroke-linecap:round;stroke-linejoin:round;stroke-width:2px;}.h{stroke:none;}.i{filter:url(#a);}</style><filter id="a" x="121" y="15" width="62.234" height="62.234" filterUnits="userSpaceOnUse"><feOffset input="SourceAlpha"/><feGaussianBlur stdDeviation="3" result="b"/><feFlood flood-color="#d54725" result="c"/><feComposite operator="out" in="SourceGraphic" in2="b"/><feComposite operator="in" in="c"/><feComposite operator="in" in2="SourceGraphic"/></filter><linearGradient id="d" x1="0.5" x2="0.5" y2="0.949" gradientUnits="objectBoundingBox"><stop offset="0" stop-color="#fff" stop-opacity="0.929"/><stop offset="1" stop-color="#fff" stop-opacity="0"/></linearGradient></defs><g transform="translate(-45 -154)"><g data-type="innerShadowGroup"><g class="i" transform="matrix(1, 0, 0, 1, 45, 154)"><ellipse class="a" cx="31.117" cy="31.117" rx="31.117" ry="31.117" transform="translate(121 15)"/></g><g class="b" transform="translate(166 169)"><ellipse class="h" cx="31.117" cy="31.117" rx="31.117" ry="31.117"/><ellipse class="g" cx="31.117" cy="31.117" rx="31.017" ry="31.017"/></g></g><g class="c" transform="translate(185 187)"><circle class="h" cx="12.373" cy="12.373" r="12.373"/><circle class="g" cx="12.373" cy="12.373" r="11.973"/></g><g transform="translate(122 189.404)"><path class="d" d="M122.865,112.815,136.748,102.4v20.825Z" transform="translate(-122.865 -102.403)"/><rect class="d" width="12.244" height="14.693" transform="translate(13.765 16.535) rotate(-90)"/></g><g transform="translate(243.541 189.404)"><path class="d" d="M229.669,112.815l-13.883,10.413V102.4Z" transform="translate(-201.211 -102.403)"/><rect class="d" width="12.244" height="14.693" transform="translate(14.693 4.29) rotate(90)"/></g><path class="e" d="M515.654,367.113c0-3.774,7.026-9.584,9.758-19.646,1.433-5.28,1.56-20.557,1.17-25.5s-.651-8.847-6.115-9.5a6,6,0,0,0-6.765,4.163c0-4.424,1.048-10.727-5.717-10.727s-6.773,7.865-6.773,7.865,1.735-10.148-5.94-10.148-6.874,10.669-6.874,10.669V283.717c0-3.122-1.106-6.9-6.83-6.9s-6.051,5.725-6.051,5.725v44.1s.448,2.192-2.016,1.951c-4.149-.4-7.566,3.3-6.766,8.587.756,5,2.631,9.72,8.406,16.894s8.507,12.379,8.377,14.2S515.654,367.113,515.654,367.113Z" transform="translate(-283.231 -81.021)"/><path class="f" d="M515.654,367.113c0-3.774,7.026-9.584,9.758-19.646,1.433-5.28,1.56-20.557,1.17-25.5s-.651-8.847-6.115-9.5a6,6,0,0,0-6.765,4.163c0-4.424,1.048-10.727-5.717-10.727s-6.773,7.865-6.773,7.865,1.735-10.148-5.94-10.148-6.874,10.669-6.874,10.669V283.717c0-3.122-1.106-6.9-6.83-6.9s-6.051,5.725-6.051,5.725v44.1s.448,2.192-2.016,1.951c-4.149-.4-7.566,3.3-6.766,8.587.756,5,2.631,9.72,8.406,16.894s8.507,12.379,8.377,14.2" transform="translate(-283.814 -80.438)"/><rect class="g" width="304" height="154" transform="translate(45 154)"/></g></svg>