<svg xmlns="http://www.w3.org/2000/svg" width="50" height="50" viewBox="0 0 50 50"><defs><style>.a,.b,.c,.e,.f,.g{fill:none;}.b,.c,.e,.f,.g{stroke:#fff;}.b,.c{stroke-miterlimit:10;}.b,.f{stroke-width:1.2px;}.c,.e{stroke-width:0.8px;}.d{fill:#fff;}.h{stroke:none;}</style></defs><g transform="translate(-1201 -378)"><rect class="a" width="50" height="50" transform="translate(1201 378)"/><g transform="translate(1205.346 384.204)"><path class="b" d="M.668,7.687,0,3.758,3.243,0" transform="matrix(0.995, -0.105, 0.105, 0.995, 0, 13.137)"/><path class="b" d="M0,7.381,2.661,4.234,1.221,0" transform="matrix(0.995, -0.105, 0.105, 0.995, 6.636, 13.928)"/><ellipse class="b" cx="4.26" cy="4.26" rx="4.26" ry="4.26" transform="translate(28.889 11.931) rotate(10)"/><ellipse class="b" cx="4.26" cy="4.26" rx="4.26" ry="4.26" transform="translate(2.596 5.172) rotate(11)"/><ellipse class="c" cx="1.493" cy="1.493" rx="1.493" ry="1.493" transform="translate(4.785 8.417) rotate(11)"/><path class="d" d="M1.118,0A1.118,1.118,0,1,1,0,1.118,1.118,1.118,0,0,1,1.118,0Z" transform="translate(20.71 3.792) rotate(-4)"/><path class="d" d="M1.118,0A1.118,1.118,0,1,1,0,1.118,1.118,1.118,0,0,1,1.118,0Z" transform="translate(22.545 26.098) rotate(-4)"/><path class="e" d="M1.529,0A1.529,1.529,0,1,1,0,1.529,1.529,1.529,0,0,1,1.529,0Z" transform="translate(30.713 15.448) rotate(-4)"/><path class="b" d="M8.749,14.226.6,4.807A3,3,0,0,1,1.2.6h0A3,3,0,0,1,5.4,1.2l9.024,10.992" transform="translate(18.532 1.717) rotate(-4)"/><path class="f" d="M0,6.889,10.329,0" transform="translate(10.027 0) rotate(11)"/><line class="b" x1="9.977" y2="4.323" transform="translate(10.178 6.546)"/><path class="b" d="M10.362.791,5.785,11.77a3,3,0,0,1-3.913,1.647h0A3,3,0,0,1,.223,9.5L4.061,0" transform="translate(24.319 16.392) rotate(21)"/><g class="g" transform="translate(12.545 31.839)"><rect class="h" width="20" height="5"/><rect class="a" x="0.5" y="0.5" width="19" height="4"/></g><path class="g" d="M3599.292-1171.729l-3.384,5.11" transform="translate(-3579.069 1199.055)"/><path class="g" d="M3596.578-1169.135l2.279,3.9" transform="translate(-3570.174 1197.463)"/></g></g></svg>