<svg xmlns="http://www.w3.org/2000/svg" width="50" height="50" viewBox="0 0 50 50"><defs><style>.a,.b,.c,.d{fill:none;}.b,.c,.d{stroke:#fff;stroke-width:1.2px;}.b,.c{stroke-linejoin:round;}.c{stroke-linecap:round;}.e{fill:#fff;}</style></defs><g transform="translate(-1284 -122)"><rect class="a" width="50" height="50" transform="translate(1284 122)"/><g transform="translate(0 1.279)"><g transform="translate(7.881 6.016)"><path class="b" d="M3312.93,1867.178l8.219,4.222-25.168,9.439-8.163-4.5Z" transform="translate(-2009.699 -1731.632)"/><path class="b" d="M3520.05,1867.178l7.415,3.809-8.9,3.144-7.049-4.007Z" transform="translate(-2206.346 -1724.266)"/><path class="c" d="M3518.54,1867.389h0l6.312,2.974-7.177,2.675-6.157-3.4Z" transform="translate(-2227.959 -1745.684)"/><path class="c" d="M3517.554,1867.178l5.246,2.7-6.073,2.264-5.21-2.875Z" transform="translate(-2201.109 -1738.232)"/><path class="b" d="M3537.949,1853.458l-19.092,7.014-8.031-4.787.07-6.019" transform="translate(-2232.707 -1704.867)"/><path class="b" d="M3526.817,1914.3l-.223,5.235-8.523,3.615-7.245-4.318.063-5.43" transform="translate(-2205.698 -1767.574)"/><path class="b" d="M3524.2,1914.155l-.186,4.377-7.348,2.627-5.837-3.215.052-4.541" transform="translate(-2227.304 -1789.47)"/><path class="b" d="M3522.14,1914.04l-.157,3.7-6.217,2.223-4.939-2.72.045-3.842" transform="translate(-2200.448 -1782.393)"/><path class="d" d="M8880.616,1444.8v-6.54" transform="translate(-7594.314 -1289.19)"/><path class="d" d="M8880.616,1442.527v-4.272" transform="translate(-7591.044 -1311.155)"/><path class="d" d="M8880.616,1441.87v-3.615" transform="translate(-7565.12 -1304.565)"/><path class="d" d="M8880.616,1444.064v-5.8" transform="translate(-7568.355 -1288.458)"/><path class="d" d="M8915.951,1425.323v3.807" transform="translate(-7604.502 -1285.462)"/></g><path class="e" d="M8889.979,1425.162l-9.2-5.614,3.847-1.467.887.49-2.916,1.113,8.477,5.125Z" transform="translate(-7592 -1280.57)"/><path class="e" d="M8876.775,1416.413l4.006,3.135,3.847-1.467.887.49-4.985,2.049-4.715-3.846Z" transform="translate(-7569.928 -1257)"/><path class="e" d="M8894.135,1409.459l3.688-1.326,11.844,6.65-1.089.376-10.924-6.127-2.413.929Z" transform="translate(-7588.902 -1280.412)"/><path class="e" d="M8893.392,1408.926l4.664-2.24-3.886-2,1.029-.4,4.9,2.552-5.605,2.594Z" transform="translate(-7567.984 -1260.108)"/></g></g></svg>