<svg xmlns="http://www.w3.org/2000/svg" viewBox="0 0 42 42"><defs><style>.a,.b{fill:none;}.b{stroke:#fff;stroke-miterlimit:10;stroke-width:1.8px;}.c{fill:#fff;}.d{stroke:none;}</style></defs><g transform="translate(-1301 -247)"><path d="M0 0H42V42H0z" class="a" transform="translate(1301 247)"/><g class="b" transform="translate(1311 257)"><circle cx="11.375" cy="11.375" r="11.375" class="d"/><circle cx="11.375" cy="11.375" r="10.475" class="a"/></g><path d="M3.357 9.932a18.247 18.247 0 0 1-.009-.475 4.419 4.419 0 0 1 .264-1.608 3.653 3.653 0 0 1 .624-1.028 11.756 11.756 0 0 1 1.138-1.1 5.388 5.388 0 0 0 1.068-1.156 1.865 1.865 0 0 0 .246-.941 2.191 2.191 0 0 0-.721-1.621 2.439 2.439 0 0 0-1.766-.7 2.376 2.376 0 0 0-1.688.633 3.331 3.331 0 0 0-.887 1.977L0 3.72A3.87 3.87 0 0 1 4.174.002a4.294 4.294 0 0 1 3.015 1.029 3.246 3.246 0 0 1 1.125 2.487 3.16 3.16 0 0 1-.4 1.556 7.412 7.412 0 0 1-1.547 1.731 7.789 7.789 0 0 0-1.011 1.011 2.279 2.279 0 0 0-.352.747 6.23 6.23 0 0 0-.131 1.371zm-.1 3.173v-1.8h1.8v1.8z" class="c" transform="translate(1318 262)"/></g></svg>