<svg xmlns="http://www.w3.org/2000/svg" viewBox="0 0 50 50"><defs><style>.a,.c,.d{fill:none;}.b{fill:#fff;}.c,.d{stroke:#fff;stroke-linecap:round;stroke-width:1.5px;}.d{stroke-linejoin:round;}</style></defs><g transform="translate(-9092 -1819)"><path d="M0 0H50V50H0z" class="a" transform="translate(9092 1819)"/><g transform="translate(-68.635 26.729)"><path d="M9181.874 1832.221h-15.5v-18.392h2.378v1.736h8.161v-1.736h-6.42v-.87h3.477v-1.741a.873.873 0 0 1 .87-.87.873.873 0 0 1 .87.87v1.741h1.2v-3.094c0-.041.023-.077.023-.118a2.572 2.572 0 0 0-2.1-1.139 2.61 2.61 0 0 0-2.606 2.611h-3.481v.87h-4.119v21.873h18.98v-9.712h-1.741z" class="b"/><path d="M9179.846 1800.355h24.95a.319.319 0 0 1 .319.319v20.311a.319.319 0 0 1-.319.319h-24.95a.319.319 0 0 1-.319-.319v-20.311a.319.319 0 0 1 .319-.319z" class="c"/><path d="M0 0 24.68 0" class="d" transform="translate(9180.455 1817.372)"/><rect width="13.08" height="2.406" class="d" rx=".135" transform="translate(9186.016 1824.313)"/><g transform="translate(9188.332 1821.66)"><path d="M.849 0 0 2.654" class="d"/><path d="M0 0 .849 2.654" class="d" transform="translate(7.253)"/></g></g></g></svg>