<svg xmlns="http://www.w3.org/2000/svg" width="50" height="50" viewBox="0 0 50 50"><defs><style>.a,.b,.d{fill:none;}.b,.d{stroke:#fff;stroke-miterlimit:10;}.b{stroke-width:1.2px;}.c{fill:#fff;}</style></defs><g transform="translate(-11384 135)"><rect class="a" width="50" height="50" transform="translate(11384 -135)"/><g transform="translate(11390 -126)"><path class="b" d="M-216.357,356.791l-.554-2.719,5.554-6.553,6.675,5.118v2.784" transform="translate(219.006 -325.414)"/><path class="c" d="M-214.4,345.929l1.04,7.078h1.25l-.415-7.578Z" transform="translate(220.42 -330.507)"/><ellipse class="b" cx="5.956" cy="5.956" rx="5.956" ry="5.956" transform="translate(23.184 0)"/><ellipse class="d" cx="1.593" cy="1.593" rx="1.593" ry="1.593" transform="translate(3.351 10.061)"/><path class="a" d="M-216.614,347.8a3.178,3.178,0,0,0-.41,2.412,3.206,3.206,0,0,0,3.829,2.4l17.131-3.925a7.563,7.563,0,0,1-1.623-4.656,7.586,7.586,0,0,1,.162-1.568l-17.1,3.922A3.163,3.163,0,0,0-216.614,347.8Z" transform="translate(218.529 -337.773)"/><path class="c" d="M-195.054,349.813l-17.131,3.925a3.206,3.206,0,0,1-3.829-2.4,3.178,3.178,0,0,1,.41-2.412,3.163,3.163,0,0,1,1.992-1.416l17.1-3.922a7.692,7.692,0,0,1,.531-1.582l-17.944,4.115a4.625,4.625,0,0,0-3.474,5.535,4.632,4.632,0,0,0,4.5,3.588,4.451,4.451,0,0,0,1.034-.121l17.968-4.115A7.6,7.6,0,0,1-195.054,349.813Z" transform="translate(217.519 -338.896)"/><path class="c" d="M-202.135,345.568l2.578,11.479a3.208,3.208,0,0,1-2.4,3.829,3.178,3.178,0,0,1-2.412-.41,3.175,3.175,0,0,1-1.416-1.992l-2.571-11.445a7.693,7.693,0,0,1-1.582-.531l2.767,12.293a4.622,4.622,0,0,0,5.531,3.474,4.632,4.632,0,0,0,3.587-4.5,4.642,4.642,0,0,0-.117-1.034l-2.767-12.317A7.76,7.76,0,0,1-202.135,345.568Z" transform="translate(236.055 -333.017)"/></g></g></svg>