<svg xmlns="http://www.w3.org/2000/svg" viewBox="0 0 50 50"><defs><style>.a,.b,.c,.d{fill:none;}.b,.c,.d{stroke:#fff;stroke-width:1.2px;}.b,.c{stroke-linejoin:round;}.c{stroke-linecap:round;}.e{fill:#fff;}</style></defs><g transform="translate(-1284 -122)"><path d="M0 0H50V50H0z" class="a" transform="translate(1284 122)"/><path d="m1303.231 135.546 8.219 4.222-25.168 9.439-8.163-4.5zM1313.704 142.912l7.415 3.809-8.9 3.144-7.049-4.007z" class="b" transform="translate(0 1.279) translate(7.881 6.016)"/><path d="M1290.581 121.705h0l6.312 2.974-7.177 2.675-6.157-3.4zM1316.445 128.946l5.246 2.7-6.073 2.264-5.21-2.875z" class="c" transform="translate(0 1.279) translate(7.881 6.016)"/><path d="m1305.242 148.591-19.092 7.014-8.031-4.787.07-6.019" class="b" transform="translate(0 1.279) translate(7.881 6.016)"/><path d="m1321.119 146.726-.223 5.235-8.523 3.615-7.245-4.318.063-5.43M1296.896 124.685l-.186 4.377-7.348 2.627-5.837-3.215.052-4.541M1321.692 131.647l-.157 3.7-6.217 2.223-4.939-2.72.045-3.842" class="b" transform="translate(0 1.279) translate(7.881 6.016)"/><path d="M1286.302 155.61v-6.54M1289.572 131.372V127.1M1315.496 137.305v-3.615M1312.261 155.606v-5.8M1311.449 139.861v3.807" class="d" transform="translate(0 1.279) translate(7.881 6.016)"/><path d="m1297.979 144.592-9.2-5.614 3.847-1.467.887.49-2.916 1.113 8.477 5.125zM1306.847 159.413l4.006 3.135 3.847-1.467.887.49-4.985 2.049-4.715-3.846zM1305.233 129.047l3.688-1.326 11.844 6.65-1.089.376-10.924-6.127-2.413.929zM1325.408 148.818l4.664-2.24-3.886-2 1.029-.4 4.9 2.552-5.605 2.594z" class="e" transform="translate(0 1.279)"/></g></svg>