<svg xmlns="http://www.w3.org/2000/svg" width="50" height="50" viewBox="0 0 50 50"><defs><style>.a,.c,.d,.e{fill:none;}.b{fill:#fff;}.c,.d,.e{stroke:#fff;stroke-linecap:round;}.c,.d{stroke-width:1.2px;}.d{stroke-linejoin:round;}</style></defs><g transform="translate(-9092 -1819)"><rect class="a" width="50" height="50" transform="translate(9092 1819)"/><g transform="translate(-68.635 26.729)"><path class="b" d="M-236.139,430.193h-16.288v-19.4h2.733v2.137h8.161v-1.066H-248.4v-2.2h3.353v-1.084a1.435,1.435,0,0,1,1.441-1.472c1.122,0,1.215.993,1.215,1.472v1.084h.858v-2.437c0-.041.023-.077.023-.118a2.572,2.572,0,0,0-2.1-1.139,2.61,2.61,0,0,0-2.606,2.611h-3.481v.87h-4.119v21.873h18.98v-9.712h-1.305Z" transform="translate(9418.449 1402.636)"/><path class="c" d="M1.319,1h24.95a.319.319,0,0,1,.319.319V21.63a.319.319,0,0,1-.319.319H1.319A.319.319,0,0,1,1,21.63V1.319A.319.319,0,0,1,1.319,1Z" transform="translate(9178.527 1799.355)"/><line class="d" x2="24.68" transform="translate(9180.455 1817.372)"/><path class="e" d="M.135,0H12.946a.132.132,0,0,1,.135.129V2.183a.132.132,0,0,1-.135.129H.135A.132.132,0,0,1,0,2.183V.129A.132.132,0,0,1,.135,0Z" transform="translate(9186.016 1824.803)"/><g transform="translate(9188.332 1821.66)"><line class="d" x1="0.849" y2="2.654" transform="translate(0 0)"/><line class="d" x2="0.849" y2="2.654" transform="translate(7.253 0)"/></g></g></g></svg>