<svg xmlns="http://www.w3.org/2000/svg" width="50" height="50" viewBox="0 0 50 50"><defs><style>.a{fill:none;}.b{fill:#fff;}</style></defs><g transform="translate(-11090 455)"><rect class="a" width="50" height="50" transform="translate(11090 -455)"/><g transform="translate(11096.667 -450.833)"><path class="b" d="M-215.833,364.753l-2.154,1.846-1.887-2.2,2.158-1.85a3.539,3.539,0,0,0-3.809.5,3.514,3.514,0,0,0-1.11,3.463l-6.456,5.532a3.513,3.513,0,0,0-3.589.562,3.536,3.536,0,0,0-1.082,3.689l2.336-2,1.884,2.2-2.333,2a3.539,3.539,0,0,0,3.809-.5,3.508,3.508,0,0,0,1.106-3.463L-220.5,369a3.512,3.512,0,0,0,3.593-.565A3.529,3.529,0,0,0-215.833,364.753Z" transform="translate(255.687 -337.966)"/><path class="b" d="M-230.391,365.839a4.276,4.276,0,0,1,.219,1.158v5.511h1.415V367a5.806,5.806,0,0,0-.507-2.124Z" transform="translate(264.217 -331.512)"/><path class="b" d="M-231.211,384.894l1.987-.918a12.089,12.089,0,0,0,6.895,2.107,15.852,15.852,0,0,0,7.23-1.761l.956.442,1.415.654.459.212,1.182-1.014-4.09-1.894-.325.2c-.007,0-.233.137-.617.322l-1.788-1.069v-2.209a9.231,9.231,0,0,0,4.518-6.227h.658c1.808,0,3.381-1.819,3.8-3.5a2.5,2.5,0,0,0-1.082-3.018,2.833,2.833,0,0,0-3.107.25v-.849l.233-.233s.346-5.936-1.856-8.34c-2.672-2.922-7.792-2.908-7.792-2.908s-5-.294-7.792,2.908c-2.151,2.463-1.856,8.34-1.856,8.34l.493.493v.778a2.9,2.9,0,0,0-3.36-.439,2.5,2.5,0,0,0-1.086,3.018c.421,1.685,1.993,3.5,3.8,3.5h.767a8.959,8.959,0,0,0,2.312,4.86,7.545,7.545,0,0,0,2.579,1.7v1.784l-1.8.682c-.116-.082-.2-.144-.2-.147l-.346-.295-8.868,4.107a4.989,4.989,0,0,0-2.374,4.189v5.511h1.415v-5.508a3.617,3.617,0,0,1,1.593-2.928l4.634-2.141v10.974h1.415v-4.74h10.957a5.2,5.2,0,0,1,.4-1.418h-11.354Zm20.53-16.423c.558.3.473,1.021.373,1.421-.288,1.151-1.353,2.432-2.425,2.432h-.411c.014-.144.021-.25.021-.26V369.45C-212.832,369.022-211.876,367.826-210.681,368.471ZM-223.9,358.294a3.955,3.955,0,0,1,2.569-.853,8.11,8.11,0,0,1,1.031.062l-.312.788c-.233-.017-.408-.024-.6-.024a3.412,3.412,0,0,0-1.144.171,2.534,2.534,0,0,0-1.634,2.435c-.031,1.97,2.038,1.682,2.552,1.278.017-.082.295-1.442.295-1.442l.007-.031h-1.141L-222,360h2.086l-.51,2.579a2.854,2.854,0,0,1-2.2.819,2.337,2.337,0,0,1-2.521-2.469A3.4,3.4,0,0,1-223.9,358.294Zm-8.436,14.029c-1.072,0-2.141-1.281-2.425-2.432-.1-.4-.188-1.123.373-1.421,1.4-.736,2.493,1.051,2.538,1.127l.158-.092v2.819Zm2.058-.017v-4l.295.295a.81.81,0,0,0,1.254,0,7.257,7.257,0,0,1,6.193-3.045,7.263,7.263,0,0,1,6.193,3.045.809.809,0,0,0,1.254,0l.555-.558v4c-.01.312-.387,7.59-8.118,7.59a7.494,7.494,0,0,1-5.583-2A8.19,8.19,0,0,1-230.279,372.307Zm5.182,10.864v-2.4a11.692,11.692,0,0,0,2.442.271,11.219,11.219,0,0,0,3.161-.428v2.459l1.507.9a14.451,14.451,0,0,1-4.343.688,10.878,10.878,0,0,1-4.329-.9Z" transform="translate(240.267 -355.133)"/></g></g></svg>