<svg xmlns="http://www.w3.org/2000/svg" viewBox="0 0 50 50"><defs><style>.a,.b,.d{fill:none;}.b,.d,.e{stroke:#fff;}.b,.d{stroke-miterlimit:10;}.b{stroke-width:2px;}.c,.e{fill:#fff;}.e{stroke-width:0.4px;}</style></defs><g transform="translate(-11384 135)"><path d="M0 0H50V50H0z" class="a" transform="translate(11384 -135)"/><g transform="translate(11390 -126)"><path d="m2.649 31.377-.554-2.719 5.554-6.553 6.675 5.118v2.784" class="b"/><path d="m4.191 15.611 2.317 7.474 2.317-.317v-7.916z" class="c"/><ellipse cx="5.956" cy="5.956" class="b" rx="5.956" ry="5.956" transform="translate(23.184)"/><ellipse cx="1.593" cy="1.593" class="d" rx="1.593" ry="1.593" transform="translate(3.351 10.061)"/><path d="M1.915 10.027a3.178 3.178 0 0 0-.41 2.412 3.206 3.206 0 0 0 3.829 2.4l17.131-3.925a7.563 7.563 0 0 1-1.623-4.656 7.586 7.586 0 0 1 .162-1.568l-17.1 3.922a3.163 3.163 0 0 0-1.989 1.415z" class="a"/><path d="M22.465 10.917 5.334 14.842a3.206 3.206 0 0 1-3.829-2.4 3.178 3.178 0 0 1 .41-2.412 3.163 3.163 0 0 1 1.992-1.416l17.1-3.922a7.692 7.692 0 0 1 .531-1.582L3.594 7.225A4.625 4.625 0 0 0 .12 12.76a4.632 4.632 0 0 0 4.5 3.588 4.451 4.451 0 0 0 1.034-.121l17.968-4.115a7.6 7.6 0 0 1-1.157-1.195zM33.92 12.551l2.578 11.479a3.208 3.208 0 0 1-2.4 3.829 3.178 3.178 0 0 1-2.412-.41 3.175 3.175 0 0 1-1.416-1.992l-2.571-11.445a7.693 7.693 0 0 1-1.582-.531l2.767 12.293a4.622 4.622 0 0 0 5.531 3.474 4.632 4.632 0 0 0 3.587-4.5 4.642 4.642 0 0 0-.117-1.034l-2.767-12.317a7.76 7.76 0 0 1-1.198 1.154z" class="e"/></g></g></svg>