<svg xmlns="http://www.w3.org/2000/svg" viewBox="0 0 50 50"><defs><style>.a{fill:none;}.b{fill:#fff;}</style></defs><g transform="translate(-11090 455)"><path d="M0 0H50V50H0z" class="a" transform="translate(11090 -455)"/><path d="M39.854 26.787 37.7 28.633l-1.887-2.2 2.158-1.85a3.539 3.539 0 0 0-3.809.5 3.514 3.514 0 0 0-1.11 3.463l-6.456 5.532a3.513 3.513 0 0 0-3.589.562 3.536 3.536 0 0 0-1.082 3.689l2.336-2 1.884 2.2-2.333 2a3.539 3.539 0 0 0 3.809-.5 3.508 3.508 0 0 0 1.106-3.463l6.46-5.532a3.512 3.512 0 0 0 3.593-.565 3.529 3.529 0 0 0 1.074-3.682z" class="b" transform="translate(11096.667 -450.833)"/><path d="M33.826 34.327a4.276 4.276 0 0 1 .219 1.158v5.511h1.415v-5.508a5.806 5.806 0 0 0-.507-2.124zM9.056 29.761l1.987-.918a12.089 12.089 0 0 0 6.895 2.107 15.852 15.852 0 0 0 7.23-1.761l.956.442 1.415.654.459.212 1.182-1.014-4.09-1.894-.325.2c-.007 0-.233.137-.617.322l-1.788-1.069v-2.209a9.231 9.231 0 0 0 4.518-6.227h.658c1.808 0 3.381-1.819 3.8-3.5a2.5 2.5 0 0 0-1.082-3.018 2.833 2.833 0 0 0-3.107.25v-.849l.233-.233s.346-5.936-1.856-8.34C22.852-.006 17.732.008 17.732.008s-5-.294-7.792 2.908c-2.151 2.463-1.856 8.34-1.856 8.34l.493.493v.778a2.9 2.9 0 0 0-3.36-.439 2.5 2.5 0 0 0-1.086 3.018c.421 1.685 1.993 3.5 3.8 3.5h.767a8.959 8.959 0 0 0 2.312 4.86 7.545 7.545 0 0 0 2.579 1.7v1.784l-1.8.682a3.341 3.341 0 0 1-.2-.147l-.346-.295-8.868 4.107a4.989 4.989 0 0 0-2.374 4.189v5.511h1.415v-5.508a3.617 3.617 0 0 1 1.593-2.928l4.634-2.141v10.974h1.415v-4.74h10.957a5.2 5.2 0 0 1 .4-1.418H9.061zm20.53-16.423c.558.3.473 1.021.373 1.421-.288 1.151-1.353 2.432-2.425 2.432h-.411c.014-.144.021-.25.021-.26l.005-2.614c.286-.428 1.242-1.624 2.437-.979zM16.367 3.161a3.955 3.955 0 0 1 2.569-.853 8.11 8.11 0 0 1 1.031.062l-.312.788a7.813 7.813 0 0 0-.6-.024 3.412 3.412 0 0 0-1.144.171 2.534 2.534 0 0 0-1.634 2.435c-.031 1.97 2.038 1.682 2.552 1.278l.295-1.442.007-.031H17.99l.277-.678h2.086l-.51 2.579a2.854 2.854 0 0 1-2.2.819 2.337 2.337 0 0 1-2.521-2.469 3.4 3.4 0 0 1 1.245-2.635zM7.931 17.19c-1.072 0-2.141-1.281-2.425-2.432-.1-.4-.188-1.123.373-1.421 1.4-.736 2.493 1.051 2.538 1.127l.158-.092v2.819zm2.058-.017v-4l.295.295a.81.81 0 0 0 1.254 0 7.257 7.257 0 0 1 6.193-3.045 7.263 7.263 0 0 1 6.193 3.045.809.809 0 0 0 1.254 0l.555-.558v4c-.01.312-.387 7.59-8.118 7.59a7.494 7.494 0 0 1-5.583-2 8.19 8.19 0 0 1-2.044-5.326zm5.182 10.864v-2.4a11.692 11.692 0 0 0 2.442.271 11.219 11.219 0 0 0 3.161-.428v2.459l1.507.9a14.451 14.451 0 0 1-4.343.688 10.878 10.878 0 0 1-4.329-.9z" class="b" transform="translate(11096.667 -450.833)"/></g></svg>