<svg xmlns="http://www.w3.org/2000/svg" viewBox="0 0 50 50"><defs><style>.a,.b{fill:none;}.b{stroke:#fff;stroke-miterlimit:10;stroke-width:1.7px;}</style></defs><g transform="translate(-11382 241)"><path d="M0 0H50V50H0z" class="a" transform="translate(11382 -241)"/><g transform="translate(11387 -233)"><g transform="translate(5.018 13.358)"><path d="M0 0H13.152V11.452H0z" class="b"/><path d="M0 0H6.358V3.023H0z" class="b" transform="translate(3.397)"/></g><g transform="translate(12.558)"><path d="M0 0H13.152V11.452H0z" class="b"/><path d="M0 0H6.358V3.023H0z" class="b" transform="translate(3.397)"/></g><g transform="translate(21.074 13.358)"><path d="M0 0H13.152V11.452H0z" class="b"/><path d="M0 0H6.358V3.023H0z" class="b" transform="translate(3.397)"/></g><path d="M0 0 40 0" class="b" transform="translate(0 27.246)"/><path d="M0 0 40 0" class="b" transform="translate(0 33.561)"/><path d="M0 0 0 5.86" class="b" transform="translate(16.738 27.702)"/><path d="M0 0 0 5.86" class="b" transform="translate(21.37 27.702)"/><path d="M0 0 0 5.86" class="b" transform="translate(5.414 27.702)"/><path d="M0 0 0 5.86" class="b" transform="translate(1.345 27.702)"/><path d="M0 0 0 5.86" class="b" transform="translate(33.394 27.702)"/><path d="M0 0 0 5.86" class="b" transform="translate(38.026 27.702)"/></g></g></svg>