<svg xmlns="http://www.w3.org/2000/svg" xmlns:xlink="http://www.w3.org/1999/xlink" width="780" height="294" viewBox="0 0 780 294"><defs><style>.a,.k,.l,.m,.n,.o,.p{fill:none;}.b,.c,.i,.j{fill:#d54725;}.c{opacity:0.5;}.d,.e{fill:#e9ecef;}.e{opacity:0.3;}.f,.j{font-size:21px;}.f,.g,.i,.j{font-family:Frutiger-Bold, 'Frutiger \34 5 Light';font-weight:700;}.g,.i{font-size:20px;}.h{fill:#fff;}.k,.n,.o{stroke:#d54725;}.k,.l,.m{stroke-miterlimit:10;}.k{stroke-width:0.5px;opacity:0.6;}.l,.m,.p{stroke:#e9ecef;}.l{stroke-width:2px;}.n{stroke-width:0.2px;}.o{stroke-width:0.8px;}.q{stroke:none;}.r{filter:url(#z);}.s{filter:url(#w);}.t{filter:url(#u);}.u{filter:url(#r);}.v{filter:url(#o);}.w{filter:url(#m);}.x{filter:url(#k);}.y{filter:url(#i);}.z{filter:url(#g);}.aa{filter:url(#e);}.ab{filter:url(#c);}.ac{filter:url(#a);}</style><filter id="a" x="110.46" y="170.91" width="69.741" height="69.741" filterUnits="userSpaceOnUse"><feOffset input="SourceAlpha"/><feGaussianBlur stdDeviation="4" result="b"/><feFlood flood-color="#d54725"/><feComposite operator="in" in2="b"/><feComposite in="SourceGraphic"/></filter><filter id="c" x="6.845" y="170.91" width="69.741" height="69.741" filterUnits="userSpaceOnUse"><feOffset input="SourceAlpha"/><feGaussianBlur stdDeviation="4" result="d"/><feFlood flood-color="#d54725"/><feComposite operator="in" in2="d"/><feComposite in="SourceGraphic"/></filter><filter id="e" x="528.46" y="223.181" width="69.741" height="69.741" filterUnits="userSpaceOnUse"><feOffset input="SourceAlpha"/><feGaussianBlur stdDeviation="4" result="f"/><feFlood flood-color="#d54725"/><feComposite operator="in" in2="f"/><feComposite in="SourceGraphic"/></filter><filter id="g" x="476.741" y="223.181" width="69.741" height="69.741" filterUnits="userSpaceOnUse"><feOffset input="SourceAlpha"/><feGaussianBlur stdDeviation="4" result="h"/><feFlood flood-color="#d54725"/><feComposite operator="in" in2="h"/><feComposite in="SourceGraphic"/></filter><filter id="i" x="424.934" y="223.181" width="69.741" height="69.741" filterUnits="userSpaceOnUse"><feOffset input="SourceAlpha"/><feGaussianBlur stdDeviation="4" result="j"/><feFlood flood-color="#d54725"/><feComposite operator="in" in2="j"/><feComposite in="SourceGraphic"/></filter><filter id="k" x="476.653" y="170.91" width="69.741" height="69.741" filterUnits="userSpaceOnUse"><feOffset input="SourceAlpha"/><feGaussianBlur stdDeviation="4" result="l"/><feFlood flood-color="#d54725"/><feComposite operator="in" in2="l"/><feComposite in="SourceGraphic"/></filter><filter id="m" x="57.829" y="44.434" width="45.716" height="60.705" filterUnits="userSpaceOnUse"><feOffset input="SourceAlpha"/><feGaussianBlur stdDeviation="4" result="n"/><feFlood flood-color="#d54725"/><feComposite operator="in" in2="n"/><feComposite in="SourceGraphic"/></filter><filter id="o" x="57.829" y="44.434" width="45.716" height="60.705" filterUnits="userSpaceOnUse"><feOffset input="SourceAlpha"/><feGaussianBlur stdDeviation="2.5" result="p"/><feFlood flood-color="#f22f00" result="q"/><feComposite operator="out" in="SourceGraphic" in2="p"/><feComposite operator="in" in="q"/><feComposite operator="in" in2="SourceGraphic"/></filter><filter id="r" x="51.557" y="41.066" width="64.261" height="64.261" filterUnits="userSpaceOnUse"><feOffset input="SourceAlpha"/><feGaussianBlur stdDeviation="3" result="s"/><feFlood flood-color="#d54725" result="t"/><feComposite operator="out" in="SourceGraphic" in2="s"/><feComposite operator="in" in="t"/><feComposite operator="in" in2="SourceGraphic"/></filter><filter id="u" x="495.5" y="51.318" width="33.346" height="42.002" filterUnits="userSpaceOnUse"><feOffset input="SourceAlpha"/><feGaussianBlur stdDeviation="4" result="v"/><feFlood flood-color="#d54725"/><feComposite operator="in" in2="v"/><feComposite in="SourceGraphic"/></filter><filter id="w" x="495.5" y="51.318" width="33.346" height="42.002" filterUnits="userSpaceOnUse"><feOffset input="SourceAlpha"/><feGaussianBlur stdDeviation="2" result="x"/><feFlood flood-color="#d54725" result="y"/><feComposite operator="out" in="SourceGraphic" in2="x"/><feComposite operator="in" in="y"/><feComposite operator="in" in2="SourceGraphic"/></filter><filter id="z" x="476.548" y="37.873" width="70.278" height="70.278" filterUnits="userSpaceOnUse"><feOffset input="SourceAlpha"/><feGaussianBlur stdDeviation="3" result="aa"/><feFlood flood-color="#d54725" result="ab"/><feComposite operator="out" in="SourceGraphic" in2="aa"/><feComposite operator="in" in="ab"/><feComposite operator="in" in2="SourceGraphic"/></filter></defs><g transform="translate(-296 -201)"><path class="a" d="M0,0H780V294H0Z" transform="translate(296 201)"/><g transform="translate(501.673 253.125)"><path class="b" d="M274.385,150.426l18.649,15.825-18.649,13.186v-6.4s-20.723-2.072-23.171-12.622V143.08s.753,11.3,23.171,14.5Z" transform="translate(-251.142 -38.399)"/><path class="c" d="M257.646,153.186c7.744-5.883,23.526-7.3,23.526-7.3v-17.9c-32.968,5.463-29.953,16.389-29.953,16.389S251.539,149.013,257.646,153.186Z" transform="translate(-251.148 -39.699)"/><path class="b" d="M367.553,150.426,348.9,166.251l18.651,13.186v-6.4s20.722-2.072,23.171-12.622V143.08s-.754,11.3-23.171,14.5Z" transform="translate(-242.731 -38.399)"/><path class="c" d="M383.355,153.186c-7.744-5.883-23.526-7.3-23.526-7.3v-17.9c32.968,5.463,29.954,16.389,29.954,16.389S389.463,149.013,383.355,153.186Z" transform="translate(-241.79 -39.699)"/><path class="d" d="M354.136,139.967a89.571,89.571,0,0,0-.532-16.773c-.39-2.783-.644-5.584-.97-8.375-.419-3.581-1.014-7.15-1.234-10.743a42.916,42.916,0,0,0-3.581-14.556,4.907,4.907,0,0,0-1.541-1.972,41.091,41.091,0,0,0-5.061-3.167c-3.573-1.829-7.216-3.521-10.843-5.246-1.752-.833-3.213-2.531-3.225-4.238a14.513,14.513,0,0,1,.053-2.661,3.852,3.852,0,0,1,.434-1.7,9.305,9.305,0,0,0,1.454-3.731,4.614,4.614,0,0,0,1.265-3.13c0-.253.379-1.17.6-2.75s-.759-1.517-.759-1.517c.854-3.858-.384-8.007-1.738-9.582-1.245-1.449-2.795-3.131-8.928-3.131s-7.587,2.813-8.22,4.11a19.994,19.994,0,0,0-1.58,5.248,6.524,6.524,0,0,0,.253,2.465l-.7.253c-.7.253-.348,1.58-.411,2.245s.506,1.264.6,3.129,1.391,1.8,1.391,1.8a9.356,9.356,0,0,0,1.675,4.584,11.2,11.2,0,0,1-.026,4.363c-.024.105-.041.2-.069.315-.5,2-1.294,3.9-3.369,4.876-2.115.994-4.229,1.99-6.316,3.04-2.495,1.254-4.961,2.564-7.435,3.86a2.219,2.219,0,0,0-.513.419,14.386,14.386,0,0,0-3.557,5.434,69.4,69.4,0,0,0-3.4,20.132c-.192,4.641-.307,9.3-.845,13.91-1.006,8.617-1.111,17.165.863,25.661a3.667,3.667,0,0,1,.015,2.754,1.126,1.126,0,0,0,.005.736c.272,1.006.519,2.024.887,3a11.868,11.868,0,0,0,1.009,1.749l.254-.13a9.526,9.526,0,0,0,.178,2.735c.77,2.092,1.742,4.111,2.664,6.144a1.039,1.039,0,0,0,.6.43c1.365.431,2.739.831,4.286,1.294,0,2.667-.053,5.572.012,8.474.116,5.064.307,10.126.464,15.188.06,1.927-.773,11.388-.656,14.25a4.706,4.706,0,0,1-.108,1.222,75.274,75.274,0,0,0-1.979,8.843,93.543,93.543,0,0,0-.175,10.8c.023,1.8.348,3.591.479,5.389a25.8,25.8,0,0,1-1.3,8.683c-1.207,4.385-.316,8.583.387,12.831a2,2,0,0,1-.09,1.533c-1.619,2.6-3.2,5.224-4.874,7.787a4.644,4.644,0,0,0-.609,4.233,2.026,2.026,0,0,0,1.866,1.641c2.4.06,4.8.046,7.2.031a4.815,4.815,0,0,0,1.2-.243,2.4,2.4,0,0,0,1.944-2.068,11.142,11.142,0,0,0,.31-2.058,2.092,2.092,0,0,1,1.259-2.09,5.039,5.039,0,0,0,2.663-5.333,5.243,5.243,0,0,1,.73-3.064,12.188,12.188,0,0,0,1.336-5.756,17.492,17.492,0,0,1,.03-3.12c.308-1.923.885-3.8,1.17-5.73a81.628,81.628,0,0,0,1.1-12.266,67.522,67.522,0,0,1,.332-7.014c.32-3.193,1.528-6.279,1.18-9.563a2.7,2.7,0,0,1,.263-.9c.442-1.54,3.258-17.184,3.811-20.319.7-3.981,1.612-7.925,2.45-11.882.365-1.723.774-3.435,1.164-5.152h.354c.07,4.3.174,8.6.2,12.9.016,3.009-.114,6.016-.1,9.024a23.57,23.57,0,0,0,.311,4.721c.461,2.2.9,4.293.294,6.595-.349,1.333.225,2.88.152,4.319-.106,2.08-.408,4.151-.654,6.223-.475,4-1.071,7.989-1.424,12-.4,4.571-.615,9.16-.865,13.744a11.432,11.432,0,0,0,.244,2.233,13.386,13.386,0,0,1,.38,2.4c-.08,1.788-.417,3.565-.468,5.351-.087,3.011.278,4.226,2.959,4.911a9.452,9.452,0,0,1,1.08.357c1.469.577,2.949,1.068,3.6,2.789a5.026,5.026,0,0,0,3.853,3.051,16.238,16.238,0,0,0,8.509-.61c.376-.112.89-.6.9-.925a4.55,4.55,0,0,0-.381-2.289,16.206,16.206,0,0,0-2.25-3.031c-1.044-1.14-2.373-2.039-3.307-3.252-1.547-2.007-2.865-4.166-1.812-6.928.245-.643.516-1.44-.178-2.036-.545-.468-.433-.909-.2-1.5a16.118,16.118,0,0,0,.987-3.242c1.117-7.054,2.023-14.146,3.316-21.167.531-2.887,1.09-5.685.625-8.614-.15-.949.205-1.888-.557-2.589-.084-.077-.177-.253-.144-.33a4.182,4.182,0,0,0-.011-2.627c.369-2.286.249-4.691.607-6.979.113-.716.176-1.438.266-2.157.228-1.818,1.307-7.123,1.45-7.986.677-4.08,1.271-8.176,1.942-12.258q.7-4.254,1.556-8.481c.075-.37.566-.683.916-.956.083-.063.376.146.554.22l-.993,1.084.054.317c.969.172,1.932.394,2.908.5.514.053,1.056-.193,1.573-.153a2.5,2.5,0,0,0,2.388-1.077,23.578,23.578,0,0,0,1.477-2.413,10.071,10.071,0,0,0,1.321-5.756c.645-.6,1.411-.964,1.464-1.415.29-2.435.978-4.847.6-7.342a5.14,5.14,0,0,1,.059-1.325C353.321,147.249,353.961,143.62,354.136,139.967Zm-53.9-18.236c-.336,3.332-.362,6.694-.593,10.038-.326,4.7-.718,9.388-1.079,14.082a3.766,3.766,0,0,0-.039,1.132c.072.293.348.743.562.76.876.068.847.6.742,1.2-.218,1.237-.51,2.463-.669,3.707a10.79,10.79,0,0,0,.1,1.964l-.265.109a4.33,4.33,0,0,1-.656-1.077,40.383,40.383,0,0,1-1.109-4.965,44.055,44.055,0,0,1-.055-4.549,47.45,47.45,0,0,1,.29-5.522,69.08,69.08,0,0,0-.1-8.139,3.28,3.28,0,0,0-.067-.66,5.606,5.606,0,0,1,.22-2.829,47.546,47.546,0,0,0,.971-5.871c.3-2.224.538-4.457.812-6.685a2.6,2.6,0,0,1,.2-.545A17.582,17.582,0,0,1,300.233,121.731Zm41.981,36.145c.055.163-.171.424-.441.609L341.4,149.3c.767-.174.854-.866.809-1.686-.232-4.264-.506-8.528-.631-12.8-.079-2.714.075-5.435.129-8.152a1.456,1.456,0,0,1,.091-.339l.328-.026c.155.945.281,1.9.474,2.836.168.828.407,1.641.618,2.461a3.87,3.87,0,0,1,.175.633c.193,2.341.352,4.683.569,7.022a24.874,24.874,0,0,0,.442,2.513,19.992,19.992,0,0,1-.114,9.905c-.418,1.361-1.009,2.671-1.554,3.99C342.444,156.374,341.915,157.006,342.214,157.877Z" transform="translate(-248.12 -46.698)"/></g><path class="b" d="M326.65,1259.011h0L308,1245.824,326.65,1230v8.923l-8.133,6.9,8.133,5.751v7.436Z" transform="translate(601.178 -882.5)"/><path class="b" d="M287.02,363.153H269.083v-7.158l-18.65,15.824,18.65,13.187v-6.4H287.02Z" transform="translate(672.559 -8.495)"/><g transform="translate(1011.178 347.5)"><path class="b" d="M18.65,0h0L0,13.187,18.65,29.011V20.088l-8.133-6.9L18.65,7.436V0Z" transform="translate(50.401 29.011) rotate(180)"/><path class="b" d="M250.433,363.153H268.37v-7.158l18.65,15.824-18.65,13.187v-6.4H250.433Z" transform="translate(-250.433 -355.995)"/></g><path class="d" d="M351.381,478.435a6.6,6.6,0,0,1-.441-1.31c-1.448-5.506-3.094-10.967-4.283-16.532-1.872-8.763-3.841-17.448-8.412-25.241a9.386,9.386,0,0,1-.639-2.039c-.306-1.02-.582-2.052-.923-3.059a24.474,24.474,0,0,1-1.189-3.3c-1.165-6.415-2.262-13.986-3.313-20.422a3.284,3.284,0,0,1,.42-2.1A25.594,25.594,0,0,0,336.749,387a19.3,19.3,0,0,1-.278-3.523c.218-3.591.542-7.176.855-10.761a34.246,34.246,0,0,1,.57-4.893,17.967,17.967,0,0,0,.127-7.03,80.378,80.378,0,0,1-.895-9.771c.015-2.651.68-5.29.9-7.947.916-10.853-1.012-21.96-8.842-29.947a13.6,13.6,0,0,1-2.636-4.564l-.536.054c-.088-.517-.169-1.064-.221-1.6a17.22,17.22,0,0,1,.641-8.122c.777-2.9,2.771-7.217,2.128-12.294-.409-3.238-1.4-7.012-5.587-8.438-2.455-.836-9.608-1.09-12.8.153a8.644,8.644,0,0,0-4.956,4.308l.418,1.684s-.537,2.358-.933,4.076a14.715,14.715,0,0,0,.132,4.421c0,.6-1.366,2.786-1.939,3.644a1.424,1.424,0,0,0,0,1.862,10.189,10.189,0,0,0,1.491.858,12.6,12.6,0,0,1,.007,1.862c-.088.382.66.907.66.907a4.764,4.764,0,0,0-.219.667,6.218,6.218,0,0,0,.749,1.48,6.447,6.447,0,0,0,0,2.385c.264,1.051,1.943,1.476,2.916,1.592s1.808.179,1.808.179l.665,4.449c-.058.258-.121.51-.185.742a4.04,4.04,0,0,0,.121,2.36,6.306,6.306,0,0,1-.308,4.88,86.128,86.128,0,0,0-4.925,20.119c-.2,2.147-.02,4.344-.343,6.465-1.357,8.928-1.178,20.242-1.795,29.217a5.815,5.815,0,0,0,.269,1.63c.395,1.72,1.19,3.448,1.133,5.148-.094,2.8-.81,5.577-1.126,8.381-.463,4.1-.354,8.308-2.608,11.985a.53.53,0,0,0-.049.146c-.835,3.385-1.656,6.775-2.505,10.155-1.374,5.473-2.59,12.139-4.207,17.534a49.718,49.718,0,0,0-2.436,12.807,18.721,18.721,0,0,1-2.207,8.711c-1.059,1.909-1.926,3.936-2.8,5.944-.8,1.825-1.423,3.734-2.254,5.544q-5.283,11.494-10.679,22.931a2.624,2.624,0,0,1-1.51,1.218,26.36,26.36,0,0,1-12.423.835,7.149,7.149,0,0,0-1.486-.155,2.012,2.012,0,0,0-1.8,3.092,9.634,9.634,0,0,0,1.572,2.045,23.73,23.73,0,0,0,12.331,6.526,17.018,17.018,0,0,0,4.294.176c1.634-.084,3.259-.366,4.886-.579a1.81,1.81,0,0,1,2.034,1.134,2.134,2.134,0,0,0,1.539,1.08,43.214,43.214,0,0,0,5.443-.838,1.592,1.592,0,0,0,1.064-.9c.759-2.942,2.435-5.7,1.752-8.947a1.269,1.269,0,0,1,.062-.75c1.2-2.5,2.218-5.036,1.989-7.93a2.78,2.78,0,0,1,.508-1.258c3.137-6.073,6.419-12.073,9.392-18.231a113.461,113.461,0,0,0,8.251-23.76c.917-3.954,3.068-6.79,5.749-9.456a1.855,1.855,0,0,1,.267.362q6.971,16.793,13.933,33.591c1.214,2.925,2.238,5.96,3.725,8.729,1.221,2.274,1.756,5.337.188,7.347-1.846,2.364-3.956,4.327-7.363,4.228a27.05,27.05,0,0,0-7.045,1.037,2.707,2.707,0,0,0-1.644,1.986,2.941,2.941,0,0,0,1.6,2.071,53.4,53.4,0,0,0,5.826,1.916,13.914,13.914,0,0,0,11.693-1.229c.874-.519,2.2-.359,3.3-.3a1.418,1.418,0,0,1,1.453,1.723,1.347,1.347,0,0,0,.727,1.072,47.511,47.511,0,0,0,6.2.895,2.225,2.225,0,0,0,2.544-2.086C353.08,487.442,353.584,482.745,351.381,478.435Z" transform="translate(665.443 -24.588)"/><g transform="translate(313 382.065)"><rect class="e" width="45.741" height="45.741" rx="3.402" transform="translate(1.845 54.621)"/><text class="f" transform="translate(16.389 82.981)"><tspan x="0" y="0">A</tspan></text><rect class="e" width="45.741" height="45.741" rx="3.402" transform="translate(53.652 1.845)"/><text class="f" transform="translate(64.989 30.204)"><tspan x="0" y="0">W</tspan></text><rect class="e" width="45.741" height="45.741" rx="3.402" transform="translate(53.652 54.621)"/><text class="g" transform="translate(70.11 81.981)"><tspan x="0" y="0">S</tspan></text><g class="ac" transform="matrix(1, 0, 0, 1, -17, -181.07)"><rect class="h" width="45.741" height="45.741" rx="3.402" transform="translate(122.46 182.91)"/></g><text class="i" transform="translate(121.918 29.204)"><tspan x="0" y="0">E</tspan></text><rect class="e" width="45.741" height="45.741" rx="3.402" transform="translate(105.46 54.621)"/><text class="f" transform="translate(120.003 82.981)"><tspan x="0" y="0">D</tspan></text><g class="ab" transform="matrix(1, 0, 0, 1, -17, -181.07)"><rect class="h" width="45.741" height="45.741" rx="3.402" transform="translate(18.85 182.91)"/></g><text class="j" transform="translate(15.743 30.205)"><tspan x="0" y="0">Q</tspan></text><rect class="k" width="49.431" height="49.431" rx="4.2" transform="translate(0 0)"/><rect class="k" width="49.431" height="49.431" rx="4.2" transform="translate(103.526 0.682)"/></g><g transform="translate(731 382.065)"><rect class="e" width="45.741" height="45.741" rx="3.402" transform="translate(1.845 1.845)"/><rect class="e" width="45.741" height="45.741" rx="3.402" transform="translate(104.832 1.845)"/><text class="f" transform="translate(15.565 30.205)"><tspan x="0" y="0">Q</tspan></text><text class="g" transform="translate(121.309 29.205)"><tspan x="0" y="0">E</tspan></text><g class="aa" transform="matrix(1, 0, 0, 1, -435, -181.07)"><rect class="h" width="45.741" height="45.741" rx="3.402" transform="translate(540.46 235.18)"/></g><g class="z" transform="matrix(1, 0, 0, 1, -435, -181.07)"><rect class="h" width="45.741" height="45.741" rx="3.402" transform="translate(488.74 235.18)"/></g><g class="y" transform="matrix(1, 0, 0, 1, -435, -181.07)"><rect class="h" width="45.741" height="45.741" rx="3.402" transform="translate(436.93 235.18)"/></g><text class="j" transform="translate(119.464 82.475)"><tspan x="0" y="0">D</tspan></text><text class="i" transform="translate(70.033 81.475)"><tspan x="0" y="0">S</tspan></text><text class="j" transform="translate(15.658 82.475)"><tspan x="0" y="0">A</tspan></text><g class="x" transform="matrix(1, 0, 0, 1, -435, -181.07)"><rect class="h" width="45.741" height="45.741" rx="3.402" transform="translate(488.65 182.91)"/></g><text class="j" transform="translate(65.09 30.205)"><tspan x="0" y="0">W</tspan></text><rect class="k" width="49.431" height="49.431" rx="4.2" transform="translate(51.808 0)"/><rect class="k" width="49.431" height="49.431" rx="4.2" transform="translate(103.526 52.27)"/><rect class="k" width="49.431" height="49.431" rx="4.2" transform="translate(51.807 52.27)"/><rect class="k" width="49.431" height="49.431" rx="4.2" transform="translate(0 52.27)"/></g><g transform="translate(312 242.066)"><g transform="translate(49.109 10.336)"><rect class="l" width="59.192" height="88.362" rx="29" transform="translate(0.001)"/><path class="m" d="M212.511,122.444a64.406,64.406,0,0,1-59.194,0" transform="translate(-153.317 -84.643)"/><line class="m" y2="14.869" transform="translate(29.597 30.103)"/><line class="m" y2="12.101" transform="translate(29.597)"/><rect class="m" width="9.346" height="18.002" rx="3.522" transform="translate(24.924 12.101)"/></g><g transform="translate(0 22.968)"><path class="b" d="M122.865,113.154,137.2,102.4v21.5Z" transform="translate(-122.865 -102.403)"/><rect class="b" width="12.643" height="15.172" transform="translate(14.213 17.073) rotate(-90)"/></g><g transform="translate(125.5 22.968)"><path class="b" d="M230.121,113.154l-14.336,10.752V102.4Z" transform="translate(-200.736 -102.403)"/><rect class="b" width="12.643" height="15.172" transform="translate(15.172 4.43) rotate(90)"/></g><g data-type="innerShadowGroup"><g class="w" transform="matrix(1, 0, 0, 1, -16, -41.07)"><path class="h" d="M176.676,132.994l1.358.1v-8.72l-.642-.363a7.634,7.634,0,0,1-3.884-6.629v-8.618a7.633,7.633,0,0,1,3.884-6.629l.642-.364V96.391l-1.446.211a23.808,23.808,0,0,0-20.27,23.422v7.69l.738.338A57.164,57.164,0,0,0,176.676,132.994Z" transform="translate(-86.49 -39.96)"/></g><g class="v" transform="matrix(1, 0, 0, 1, -16, -41.07)"><path class="h" d="M176.676,132.994l1.358.1v-8.72l-.642-.363a7.634,7.634,0,0,1-3.884-6.629v-8.618a7.633,7.633,0,0,1,3.884-6.629l.642-.364V96.391l-1.446.211a23.808,23.808,0,0,0-20.27,23.422v7.69l.738.338A57.164,57.164,0,0,0,176.676,132.994Z" transform="translate(-86.49 -39.96)"/></g></g><g data-type="innerShadowGroup"><g class="u" transform="matrix(1, 0, 0, 1, -16, -41.07)"><ellipse class="h" cx="32.13" cy="32.13" rx="32.13" ry="32.13" transform="translate(51.56 41.07)"/></g><g class="n" transform="translate(35.557 0)"><ellipse class="q" cx="32.13" cy="32.13" rx="32.13" ry="32.13"/><ellipse class="a" cx="32.13" cy="32.13" rx="32.03" ry="32.03"/></g></g><g class="o" transform="translate(47.091 11.534)"><circle class="q" cx="20.596" cy="20.596" r="20.596"/><circle class="a" cx="20.596" cy="20.596" r="20.196"/></g></g><path class="p" d="M3752.776-1913.142v290" transform="translate(-3066.276 2114.142)"/><rect class="l" width="59.192" height="88.362" rx="29" transform="translate(778 252.402)"/><path class="m" d="M212.511,122.444a64.406,64.406,0,0,1-59.194,0" transform="translate(624.683 167.575)"/><line class="m" y2="14.869" transform="translate(808 282.32)"/><line class="m" y2="12.101" transform="translate(808 252.217)"/><g data-type="innerShadowGroup"><g class="t" transform="matrix(1, 0, 0, 1, 296, 201)"><rect class="h" width="9.346" height="18.002" rx="3.522" transform="translate(507.5 63.32)"/></g><g class="s" transform="matrix(1, 0, 0, 1, 296, 201)"><rect class="h" width="9.346" height="18.002" rx="3.522" transform="translate(507.5 63.32)"/></g></g><rect class="m" width="9.346" height="18.002" rx="3.522" transform="translate(803 264.318)"/><path class="b" d="M0,10.752,14.336,0V21.5Z" transform="translate(818.503 245) rotate(90)"/><path class="b" d="M0,10.752,14.336,0V21.5Z" transform="translate(797 304.721) rotate(-90)"/><g data-type="innerShadowGroup"><g class="r" transform="matrix(1, 0, 0, 1, 296, 201)"><ellipse class="h" cx="35.139" cy="35.139" rx="35.139" ry="35.139" transform="translate(476.55 37.87)"/></g><g class="n" transform="translate(772.548 238.873)"><ellipse class="q" cx="35.139" cy="35.139" rx="35.139" ry="35.139"/><ellipse class="a" cx="35.139" cy="35.139" rx="35.039" ry="35.039"/></g></g><g class="o" transform="translate(795.5 261.654)"><circle class="q" cx="12.358" cy="12.358" r="12.358"/><circle class="a" cx="12.358" cy="12.358" r="11.958"/></g></g></svg>